<svg fill="none" height="524" viewBox="0 0 396 524" width="396" xmlns="http://www.w3.org/2000/svg" xmlns:xlink="http://www.w3.org/1999/xlink"><clipPath id="a"><path d="m0 0h395.42v523.31h-395.42z"/></clipPath><g clip-path="url(#a)" fill="#89743a"><path d="m96.34.06c-.04.03-.75.11-1.56.17-2.81.21-4.76.55-8.06 1.41-6.14 1.61-11.83 4.32-20.81 9.9-11.42 7.1-15.89 9.44-21.8 11.41-2.98.99-5.96 1.71-8.26 2-2.11.26-2.22.29-2.22.7 0 .34.07.36.99.25 8.47-.98 16.03-4.05 27.52-11.15 6.26-3.87 8.3-5.1 10.36-6.26 8.73-4.89 15.46-7.08 23.43-7.62 1.14-.08 64.17-.1 140.05-.05l137.97.09v-.45-.46h-138.78c-76.32 0-138.79.03-138.83.06z"/><path d="m169.8 9.44003c-.04.05-2.62.09-5.7.1-3.09 0-10.18.08-15.76.16s-13.14.2-16.81.25c-3.67.04997-12.91.12997-20.53.17997s-14.68.13-15.68.18c-5.98.31-12.42 2.11-19.03 5.3-3.44 1.66-5.6 2.91-15.28 8.8-10.38 6.32-16.48 8.95-24.08 10.38-1 .19-2.26.39-2.8.45-.87.1-.97.15-.89.44.11.41.12.41 2.45.08 4.07-.59 8.78-1.98 13.03-3.85 4.32-1.9 7.68-3.75 15.75-8.7 2.91-1.78 6.46-3.89 7.87-4.68 6.24-3.48 11.64-5.6 16.98-6.68 4.24-.85 5.67-.92 19.74-.94 7.23-.01 13.23-.05 13.35-.09s5.48-.12 11.91-.18 12.7-.14 13.93-.17c17.92-.46 110.33-.47 125.46-.01 1.53.05 9.04.12 16.72.17s16.25.12 19.06.17c5.17.08 17.71.18 48.01.37l16.74.11.1-.37c.05-.21.01-.4-.1-.43s-12.55-.11-27.66-.17-28.91-.14-30.67-.18-8.54-.11-15.07-.15997c-6.53-.05-15.96-.14-20.97-.2-23.47-.27-39.19-.35-73.22-.38-20.25-.02-36.81.01-36.85.05z"/><path d="m182.82 17.02c-.05.04-3.36.14-7.36.21s-7.55.15-7.88.18-2.48.11-4.76.17-4.39.15-4.68.18-1.92.1-3.64.16c-1.72.05-3.74.13-4.51.18-1.71.1-4.3.23-7.28.35-1.24.05-4 .17-6.15.26-2.15.1-4.91.21-6.15.26-1.25.05-2.87.12-3.64.16-.76.04-3.14.13-5.28.19-2.15.06-4.25.14-4.68.16s-4.28.1-8.58.16c-13.62.19-15.6.31-20.1 1.3-7.13 1.57-13.13 4.3-24.64 11.2-8.61 5.17-13.19 7.59-17.73 9.38-4.14 1.63-9.29 2.99-12.42 3.28-1.18.11-1.26.14-1.26.51 0 .33.08.39.48.33.26-.04 1.33-.19 2.35-.35 3.65-.54 7.99-1.77 11.87-3.37 4.45-1.84 8.23-3.84 16.06-8.51 7.12-4.25 8.86-5.23 12.22-6.9 7-3.49 12.48-5.13 19.41-5.82.43-.04 4.18-.12 8.32-.17s8.71-.13 10.14-.18c1.44-.05 4.07-.13 5.89-.18s3.91-.13 4.68-.16c.76-.04 2.95-.12 4.85-.17 1.91-.06 3.74-.14 4.07-.17.33-.04 2.04-.12 3.81-.17s3.48-.14 3.81-.17c.33-.04 2.01-.12 3.73-.18s3.39-.14 3.73-.16c.33-.03 2.13-.11 3.99-.17 1.85-.07 3.61-.14 3.9-.17s2.39-.11 4.68-.17c2.29-.07 4.29-.15 4.45-.18.78-.15 13.36-.34 21.88-.34 8.33 0 17.12.16 18.71.34.29.03 1.73.11 3.21.18s2.92.15 3.21.18 1.49.11 2.69.16c1.2.06 2.48.14 2.86.18s1.94.16 3.47.26c1.52.1 3.24.22 3.81.26 3.14.22 3.71.27 4.42.34.43.04 1.68.12 2.77.18s2.11.14 2.25.17c.14.04 1.11.12 2.17.17 1.05.06 3.38.21 5.2.35s4.26.29 5.46.35 2.48.13 2.86.17 2.01.12 3.64.18 3.22.16 3.55.22c.64.11 74.94.17 102.63.09l16.24-.05v-.36-.36l-56.61.06c-48.31.05-63.55-.02-65.01-.28-.15-.03-1.65-.11-3.31-.17s-3.15-.14-3.29-.17-1.23-.1-2.43-.16-2.55-.14-3.03-.18-1.49-.11-2.25-.16c-1.26-.09-8.98-.64-12.22-.88-.71-.05-1.85-.13-2.51-.17-.68-.04-1.63-.12-2.17-.16-.52-.05-1.7-.13-2.6-.18s-2.08-.13-2.6-.17c-1.68-.14-5.91-.41-8.06-.51-1.14-.06-2.43-.14-2.86-.18s-2.22-.12-3.99-.17-3.67-.13-4.25-.16c-1.75-.19-15.45-.38-15.54-.3z"/><path d="m181.78 23.6c-.05.04-2.39.1301-5.2.1901s-5.54.1499-6.06.1899c-.53.04-1.96.12-3.21.18s-2.6.13-3.03.17-1.63.12-2.69.17c-1.06.06-2.18.13-2.51.17-.34.04-1.3.12-2.17.17-1.68.11-7.4.5601-8.87.6901s-2.65.2399-3.95.3499c-1.56.13-3.1.27-3.99.36-.38.04-1.66.15-2.86.25s-3.48.29-5.11.43c-2.53.22-9.22.7601-12.91 1.0301-1.93.14-7.71.4799-11.78.6899-.81.04-2.84.12-4.51.17-5.8.18-8.23.28-8.84.35-.33.04-1.2.12-1.91.18-6.86.54-13.57 2.34-19.35 5.1801-3.46 1.6999-5.46 2.9099-10.27 6.2399-8.94 6.18-13.34 8.6-19.32 10.66-3.34 1.15-8.86 2.3601-12.09 2.6401-.94.08-1.08.17-.93.57.14.35.89.2899 4.79-.36 8.44-1.4201 15.78-4.5901 24.73-10.6701 1.46-.99 3.78-2.57 5.2-3.53 4.89-3.32 8.47-5.24 12.94-6.9 4.15-1.55 9.88-2.73 15.09-3.12.76-.06 1.85-.1399 2.43-.1899 1.02-.08 3-.1601 9.1-.3601 1.66-.05 3.54-.13 4.16-.18.62-.04 2.69-.16 4.59-.25 1.91-.1 3.82-.21 4.25-.26s1.56-.13 2.51-.18 2.08-.13 2.51-.17 1.4-.1199 2.17-.1699c.76-.05 2.17-.17 3.12-.25.95-.09 2.32-.2 3.03-.26s1.65-.1401 2.08-.1801c.43-.0399 2.22-.19 3.99-.34 1.77-.14 3.48-.29 3.81-.34.33-.04 1.23-.12 1.99-.18s1.7-.14 2.08-.17c.38-.04 1.2-.11 1.82-.16s2.06-.17 3.21-.27c1.14-.1 2.59-.2199 3.21-.2699 3.47-.27 4.96-.3801 7.02-.5201.87-.0599 1.87-.13 2.25-.17s1.82-.12 3.21-.18 2.69-.14 2.91-.17c2.91-.45 25.8-.45 29.84.01.33.04 1.7.15 3.03.25 2.34.18 3.46.2801 5.11.4401 1.16.11 4.16.4299 4.85.5199.33.04 2.55.31 4.94.6s4.84.6 5.46.69 2.03.2901 3.12.4301c1.1.15 3.4.4599 5.11.6999 11.37 1.57 21.23 2.75 25.99 3.12.76.0601 1.66.1401 1.99.1801s1.54.1199 2.69.17c1.14.06 2.35.14 2.69.17.33.04 1.98.1099 3.64.16 1.66.05 4.32.14 5.89.2 9.01.33 37.95.4099 54.58.1499 2.81-.04 10.14-.12 16.29-.18 6.15-.05 12.19-.12 13.43-.16 1.24-.03 6.29-.0699 11.23-.0799l8.98-.0201-.05-.3899-.05-.3901-13.06.07c-7.19.04-13.31.09-13.6.11-.3.02-7.05.1101-15.01.1901-25.75.26-60.26.1599-67.23-.2001-.71-.04-2.39-.11-3.73-.17-1.33-.06-2.82-.14-3.29-.18-.48-.04-1.99-.16-3.38-.26-1.38-.1-4.04-.34-5.89-.5199-3.38-.3401-5.06-.5301-8.49-.9501-.51-.06-4.52-.5799-6.76-.8699-.75-.1-3.15-.4301-8.75-1.2101-13.88-1.93-24.14-3.05-31.88-3.48-.95-.05-2.28-.13-2.95-.17-2.22-.07-11.29-.24-11.38-.16z"/><path d="m177.36 29.23c-2.3.11-7.83.43-8.4.49-.34.04-1.61.15-2.86.26s-2.56.22-2.95.26c-1.54.16-5.59.62-6.15.7-.33.04-1.28.16-2.1.26-2.46.29-2.55.3-15.14 2.1-6.67.95-13.01 1.84-14.08 1.98s-2.87.37-3.98.51c-2.44.32-11 1.23-12.96 1.38-.76.06-1.82.14-2.34.18-.95.07-2.84.18-6.15.35-17.92.91-25.92 3.43-39.25 12.33-10.65 7.11-18 10.47-26.68 12.19-1.39.28-3.35.59-4.38.7-1.75.19-1.86.22-1.86.59 0 .35.07.38.64.32 4.61-.5 9.24-1.51 13.08-2.83 6.05-2.09 11.09-4.75 19.72-10.4 2.43-1.59 5.19-3.34 6.13-3.89 7.4-4.26 14.31-6.5 23.24-7.54 3.34-.39 4.64-.49 10.57-.79 3.38-.17 5.04-.27 5.8-.35.43-.04 1.4-.13 2.17-.18 1.39-.1 9.05-.88 10.05-1.03.46-.06 1.96-.26 4.07-.52 2.02-.25 6.76-.91 11.96-1.65 16.39-2.36 16.49-2.37 23.56-3.21.43-.05 1.05-.13 1.39-.17 2.51-.31 11.14-1.01 15.16-1.23 2.91-.16 12.49-.16 14.73-.01 11.24.78 18.96 2.01 37.08 5.93 11.35 2.45 12 2.59 15.85 3.35 8.39 1.65 16.86 2.9 21.92 3.23.87.06 1.87.13 2.25.17s1.66.12 2.86.17c1.2.06 2.48.14 2.86.17.38.04 1.98.12 3.55.17 1.58.06 3.17.13 3.55.17 2.06.2 13.45.35 25.9.35 17.31 0 23.59-.08 39.33-.51 1.96-.05 6.55-.15 10.22-.21s7.33-.13 8.14-.15 4.61-.05 8.46-.06l6.98-.03-.05-.39c-.05-.38-.09-.39-2.65-.39-4.37 0-23.66.26-25.31.34-.85.04-4.47.13-8.04.19s-7.08.14-7.8.17c-10.08.43-45.58.43-53.8-.01-.86-.05-3.27-.16-5.37-.26s-4.44-.21-5.2-.26-2.01-.13-2.77-.18c-10.72-.7-18.14-1.91-38.21-6.23-19.27-4.15-26.51-5.4-36.42-6.26-2.82-.23-13.27-.42-16.32-.27z"/><path d="m177.08 34.04c-.04.03-1.16.12-2.5.18-1.33.07-2.46.14-2.51.17s-.75.1-1.56.17c-2.53.2-7.88.94-12.04 1.65-5.85 1-8.35 1.51-20.71 4.18-14.19 3.07-21.04 4.3-28.5 5.15-3.26.37-4.4.47-9.44.8-2.3.15-6.08.45-6.84.54-6.34.74-8.32 1.06-11.87 1.93-5.72 1.39-11.18 3.63-16.11 6.62-.71.43-2.67 1.64-4.33 2.69-9.6 6.01-15.15 8.86-21.17 10.87-3.95 1.32-8.65 2.34-13 2.83-.87.1-1 .16-1 .48 0 .39.21.39 2.98.04 1.93-.24 6.45-1.2 8.61-1.82 7.24-2.08 13.17-4.99 24.28-11.95 5.79-3.62 7.58-4.61 11.18-6.14 3.99-1.7 8.42-3 13.08-3.82 2.51-.44 9.03-1.19 12.13-1.39.9-.06 2.08-.14 2.6-.18.53-.04 1.77-.12 2.77-.17 1-.06 2.09-.13 2.43-.17s1.11-.11 1.73-.17c7.11-.64 15.09-2.05 30.5-5.37 19.67-4.24 25.78-5.28 36.3-6.16 3-.25 11.25-.34 13.95-.15 11.14.79 20.31 2.85 40.86 9.18 12.75 3.93 18.72 5.57 25.33 6.99 2.89.62 8.29 1.56 10.05 1.75.52.06 1.15.14 1.39.17.24.04 1.02.12 1.73.17.71.06 2.08.18 3.03.26 5.79.53 14.17.98 22.53 1.21 9.91.27 29.59.15 41.67-.25 1.48-.05 4.59-.14 6.93-.19 2.34-.06 4.83-.13 5.54-.16.72-.03 3.83-.11 6.93-.17 3.1-.07 6.13-.14 6.73-.17s5.56-.11 11-.17c5.44-.07 9.97-.18 10.05-.26s.09-.23.03-.33c-.2-.33-15.11-.21-29.98.24-4.39.13-8.87.25-16.98.44-4 .09-8.6.21-10.22.26-3.36.1-30.35.1-32.31 0-.72-.04-2.93-.11-4.94-.17s-3.87-.14-4.16-.17c-.29-.04-1.61-.11-2.95-.17-7.28-.3-15.23-1.05-20.36-1.93-8.36-1.43-14.57-3.05-30.5-7.95-9.1-2.8-14.3-4.31-19.15-5.54-4.09-1.04-10.43-2.35-13.43-2.77-1.09-.15-2.19-.31-2.43-.35-.5-.09-3.26-.37-5.8-.59-1.65-.18-11.41-.27-11.55-.14z"/><path d="m176.49 38.59c-3.19.24-5.5.43-5.84.48-.22.03-1.09.14-1.96.25-7.31.92-15.21 2.79-31.54 7.45-18.31 5.24-26.05 6.94-35.43 7.79-3.22.29-3.86.35-4.59.44-.38.04-1.16.12-1.73.18-14 1.35-23.41 4.08-32.57 9.49-1.05.62-3.43 2.02-5.28 3.11-11.26 6.63-18.15 9.63-26.35 11.47-1.92.43-7.29 1.29-8.26 1.31-.12 0-.21.17-.21.38 0 .36.05.37 1.33.25 2.25-.2 6.39-.95 9.2-1.67 5-1.27 8.63-2.65 14.16-5.37 4.36-2.14 6.15-3.13 12.65-6.98 12.85-7.62 19.53-9.67 36.98-11.37 15.05-1.47 19.96-2.48 40.67-8.4 11.31-3.24 17.65-4.89 22.63-5.89 3.08-.62 7.59-1.39 9.22-1.56.48-.05 1.52-.17 2.34-.26 3.78-.42 10.72-.56 14.29-.28 7.88.62 16.51 2.59 25.99 5.92 4.07 1.43 8.58 3.18 17.41 6.73 4.33 1.74 9.29 3.7 11 4.34 11.19 4.18 19.45 6.32 28.68 7.43 2.79.34 7.4.8 9.53.97 1.39.1 2.75.22 3.03.26s1.58.12 2.86.18 2.5.14 2.7.16c.2.03 2.03.11 4.07.17 2.04.07 4.14.15 4.66.19 1.26.09 25.44.09 25.99 0 .24-.04 2.91-.13 5.94-.19s5.72-.14 5.98-.17 2.46-.11 4.89-.17 4.54-.14 4.68-.17 2.01-.11 4.16-.17c2.15-.07 4.25-.14 4.68-.17s2.69-.11 5.02-.18c2.34-.07 4.56-.15 4.94-.17s3.88-.1 7.8-.17 7.22-.15 7.36-.17 1.75-.05 3.59-.06c3.29-.02 3.33-.02 3.3-.39l-.03-.37-8.59.11c-4.73.06-9.05.15-9.63.19-.57.04-2.91.12-5.2.18s-4.67.14-5.28.17c-.62.04-2.53.11-4.25.16s-3.98.13-5.02.18c-2.08.09-5.39.22-9.7.36-1.52.05-3.4.12-4.16.16-9.74.46-39.97.47-44.18.01-.38-.04-1.54-.12-2.6-.18-4.25-.22-11.3-.81-14.47-1.21-.34-.04-1.61-.2-2.86-.36-11.22-1.4-20.32-4.18-40.55-12.38-22.8-9.26-33.93-12.09-47.39-12.07-1.84 0-3.68.03-4.06.06z"/><path d="m176.06 42.84c-.05.04-.87.13-1.82.2s-1.97.15-2.25.19-1.42.19-2.51.34c-8.39 1.16-15.77 3.28-32.92 9.49-10.5 3.8-14.89 5.28-19.49 6.6-6.99 2-10.99 2.76-19.84 3.76-12.37 1.4-18.76 2.71-25.47 5.23-4.43 1.66-7.38 3.1-13.41 6.54-16.58 9.46-23.95 12.2-37.48 13.96-.59.08-.75.17-.75.44 0 .41-.07.41 3.15-.01 9.39-1.21 18.42-4.38 29.16-10.22 1.82-.99 7.72-4.32 8.92-5.04 1.78-1.06 6.32-3.27 8.7-4.23 7.04-2.84 15.02-4.64 25.44-5.74.62-.07 1.24-.14 1.39-.17.14-.03.88-.11 1.65-.17.76-.07 1.5-.14 1.65-.17.14-.03.76-.11 1.39-.17 1.55-.16 5.09-.74 7-1.13 7.24-1.5 13.19-3.34 27.91-8.66 4.96-1.79 10.3-3.69 11.87-4.22 22.01-7.4 36.58-7.99 53.71-2.15 6.81 2.32 11.45 4.41 25.9 11.64 14.43 7.22 19.16 9.33 26.25 11.71 7.66 2.57 14.42 3.81 23.27 4.28 4.97.27 26.13.09 29.23-.24.43-.05 16.22-.12 35.09-.17s36.76-.14 39.77-.21c5.18-.12 5.46-.14 5.52-.45.06-.32-.62-.33-36.46-.22-32.96.1-43.46.19-45.55.37-1.44.13-12.68.35-17.85.35-4.97 0-11.78-.19-12.27-.33-.11-.04-.87-.11-1.68-.17-6.86-.48-14.43-2.19-21.85-4.96-6.17-2.3-9.81-3.97-22.77-10.48-12.7-6.38-15.01-7.46-20.88-9.82-6.93-2.78-14.08-4.75-19.93-5.5-.81-.1-1.78-.23-2.17-.29-.87-.1-9.51-.28-9.62-.18z"/><path d="m175.45 47.82c-10.73.53-20.79 3.5-39.25 11.61-10.5 4.61-15.49 6.61-21.14 8.5-5.86 1.95-12.28 3.44-16.72 3.88-1.94.19-4.33.46-6.32.71-1.09.14-2.35.3001-2.77.3501-3.09.3799-7.78 1.2899-11.35 2.1899-6.41 1.62-12.6 4.17-19.87 8.17-2.66 1.46-9.06 4.77-12.03 6.21-9.77 4.74-18.3 7.41-26.53 8.3-1.85.2-1.96.23-1.96.59 0 .3.08.3701.39.33.21-.0299 1.13-.14 2.04-.24 6.87-.8 13.88-2.75 21.23-5.91 2.65-1.14 9.29-4.37 12.3-5.99 6.43-3.45 12.01-6.3 14.03-7.16 7.82-3.32 15.27-5.06 27.38-6.4 7.4-.82 10.94-1.48 16.44-3.06 5.86-1.68 11.78-3.95 22.8-8.74 12.11-5.27 16.5-7.02 22.02-8.8 5.98-1.93 11.83-3.19 16.88-3.63 2.74-.24 9.57-.13 12.04.2 11.45 1.51 21.61 5.79 40.37 17 15.2 9.08 22.03 12.62 29.79 15.44 5.82 2.12 13.17 3.71 19.16 4.16.87.07 1.6.14 1.65.17.3.16 6.88.33 12.91.33 7.32 0 13.55-.15 21.4-.52.81-.04 15.32-.12 32.23-.18s34.38-.12 38.81-.14l8.06-.03.06-.41.06-.41-34.89.1c-19.18.06-36.57.14-38.61.19-5.06.11-10.86.29-11.7.35-1.74.1301-11.9.34-16.2.34-4.45 0-10.56-.19-11.35-.35-.19-.04-.99-.1099-1.78-.17-3.61-.25-8.77-1.08-12.6-2.04-9.34-2.33-17.67-6.22-33.18-15.47-13.62-8.13-19.35-11.23-25.64-13.89-7.99-3.37-15.35-5.22-22.01-5.53-1.09-.05-2.38-.12-2.86-.14-.47-.01-1.95.03-3.29.09z"/><path d="m176.39 53.08c-.04.03-1.07.11-2.32.17-4 .19-8.42.97-13 2.29-7.08 2.05-12.27 4.27-25.47 10.91-14.59 7.34-19.86 9.67-26.39 11.67-4.86 1.48-7.02 1.91-15.11 2.96-5.25.68-11.3 1.65-13.69 2.19-4.94 1.12-9.23 2.41-12.91 3.89-3.04 1.22-3.66 1.51-9.18 4.29-14.4 7.25-17.75 8.81-23.51 10.93-5.96 2.2-13.09 3.9-17.9 4.26-1.73.13-1.8.16-1.77.61.02.35.09.37.98.27 9.76-1.11 18.04-3.55 28.31-8.35 1.55-.72 6.62-3.23 11.3-5.59 11.07-5.58 14.61-7.02 21.49-8.77 3.78-.96 10.33-2.18 13.95-2.61 3.62-.42 10.06-1.34 11.45-1.63 6.41-1.33 12.65-3.51 21.03-7.37.76-.35 5.48-2.69 10.48-5.2 13.22-6.63 17.49-8.56 23.44-10.59 7.21-2.46 13.11-3.51 19.61-3.51 9.74.01 18.47 2.51 29.46 8.46 4.37 2.36 8.25 4.8 15.68 9.84 9.43 6.39 15.14 10.18 17.59 11.66 14.65 8.87 24.36 11.94 40.29 12.75 5.44.28 19.49.07 27.29-.39 4.12-.25 30.7-.43 62.59-.44 12.09 0 21.56-.07 21.62-.15.05-.08.04-.28-.02-.43-.1-.27-2.52-.28-34-.19-37.53.11-43.87.18-51.22.53-.95.05-3.14.13-4.85.19-1.72.06-3.51.13-3.99.17-1.21.09-16.69.09-17.33-.01-.28-.04-1.42-.12-2.51-.18-2.42-.13-3.01-.18-6.32-.62-9.44-1.24-16.89-3.8-26.25-9.01-5.1-2.84-7.76-4.56-23.04-14.92-10.27-6.96-16.62-10.61-23.29-13.39-5.84-2.43-11.32-3.88-16.74-4.41-2.29-.2-5.64-.38-5.75-.28z"/><path d="m171.55 59.37c-7.98.92-15.78 3.58-25.99 8.84-3.23 1.67-4.56 2.4-13.86 7.68-12.94 7.34-20.54 10.7299-28.14 12.5599-2.12.51-6.5 1.2901-12.67 2.25-3.33.52-9.56 1.6801-12.22 2.2801-8.04 1.81-13.38 3.7599-21.85 7.97-13.84 6.88-18.89 9.11-25.63 11.34-5.16 1.7-10.62 2.93-15.42 3.46-1 .11-1.97.22-2.17.24-.31.04-.35.13-.28.63.01.1.32.14.75.08 6.91-.85 10.39-1.55 15.65-3.15 6.66-2.03 11.64-4.17 24.78-10.63 8.46-4.1601 10.87-5.2201 15.25-6.6801 5.9-1.97 11.04-3.11 22.21-4.93 10.41-1.7 12.71-2.1899 17.12-3.6999 6.9-2.36 12.7-5.18 24.6-11.97 13.53-7.71 20-10.87 26.82-13.08 11.12-3.6 21.03-3.65 31.4-.15 8.45 2.85 16.86 7.84 29.96 17.77 13.39 10.15 16.58 12.47 21.17 15.43 12.43 8.01 22.33 11.26 36.37 11.95 4.78.23 18.38.09 21.23-.22.33-.04 1.51-.11 2.6-.16 4.44-.2 6.7-.31 7.28-.37 2.65-.24 23.37-.43 51.98-.48 11.57-.02 23.3-.06 26.03-.09 4.94-.05 4.98-.06 4.98-.42v-.36l-35.21.13c-39.14.14-43.13.18-49.09.54-.76.05-2.17.13-3.12.18s-2.36.13-3.12.16c-.76.04-2.48.12-3.81.17-1.33.06-2.85.14-3.38.18-1.26.1-15.08.11-16.29 0-.53-.04-1.61-.13-2.43-.19-7.59-.54-14.11-1.97-20.13-4.43-7.38-3.0101-15.07-7.8101-26.65-16.6101-12.68-9.65-16.71-12.5799-21.16-15.4099-12.22-7.78-22.35-11.21-32.73-11.09-1.55.03-3.73.15-4.83.28z"/><path d="m172.16 66.72c-6.49.63-13.05 2.6-20.48 6.15-4.48 2.14-8.4 4.38-17.55 10.01-12.23 7.53-17.3 10.27-23.39 12.67-5.13 2.02-7.76 2.67-16.81 4.17-19.91 3.3-25.81 4.96-37.17 10.48-10.34 5.02-13.36 6.43-17.67 8.25-6.93 2.93-13.8 5.04-19.84 6.12-2.51.45-5.75.87-6.62.87-.59 0-.66.05-.66.45 0 .45.01.45.91.34.5-.06 1.18-.14 1.52-.18 6.6-.72 13.9-2.59 21.4-5.47 2.78-1.07 6.84-2.81 9.76-4.17.99-.46 1.83-.85 1.85-.85.03 0 1.99-.94 4.37-2.1 9.55-4.65 11.23-5.41 15.11-6.82 6.61-2.42 11.89-3.62 26.61-6.08 4.3-.72 8.81-1.56 10.05-1.89 4.58-1.19 9.17-2.97 14.47-5.62 4.73-2.37 7.03-3.7 17.67-10.24 16.72-10.28 24.6-13.71 34.83-15.17 2.77-.4 8.41-.4 11.18 0 6.46.93 12.42 3.02 18.96 6.65 6.66 3.7 12.39 7.85 23.84 17.28 12.09 9.95 17.3 13.86 23.3 17.46 9.59 5.76 18.38 8.37 30.58 9.1 4.02.24 20.11.07 21.73-.22.15-.03 1.49-.11 2.96-.17 1.47-.07 2.96-.14 3.29-.17s1.85-.1 3.38-.16c1.52-.06 3.12-.14 3.55-.18 2.13-.17 13.9-.27 46.11-.37 33.82-.11 35.3-.13 35.38-.43.05-.17-.03-.36-.18-.42s-4.63-.06-9.99-.01c-5.35.05-22.66.14-38.48.2s-29.19.13-29.72.16c-.52.03-2.2.1-3.73.16-3.21.12-5.65.25-7.02.36-.52.04-2.2.13-3.73.19-1.52.06-2.86.14-2.96.17-.37.11-8.11.33-11.94.33-3.71 0-9.96-.18-11.18-.33-.33-.04-1.66-.2-2.95-.36-9.55-1.14-16.57-3.57-24.93-8.62-5.54-3.34-10.86-7.29-20.34-15.07-14.8-12.15-20.78-16.49-27.9-20.22-6.22-3.27-11.39-5.04-17.53-6-2.02-.34-7.77-.47-10.04-.25z"/><path d="m172.94 75.67c-3.9.31-7.94 1.14-11.96 2.47-7.7 2.54-13.81 5.83-28.24 15.18-7.42 4.8-12.38 7.73-16.89 9.95-6.87 3.38-11.35 4.8-19.23 6.07-14.43 2.34-18.35 3.1-24.17 4.72-5.14 1.43-9.88 3.24-15.51 5.94-12.46 5.96-17.24 8.11-22.32 10.03-7.33 2.77-14.97 4.68-21.4 5.33-1.07.11-1.94.26-1.94.34 0 .4.23.63.57.58.21-.03 1.16-.14 2.11-.25 6.77-.77 14.05-2.64 21.49-5.5 4.99-1.92 9.86-4.11 20.48-9.2 9.29-4.45 14.41-6.25 23.32-8.17 2.36-.51 8.4-1.61 11.9-2.17 9.89-1.58 12.61-2.15 16.67-3.53 7.15-2.43 12.89-5.49 25.26-13.44 7.16-4.6 9.34-5.97 12.65-7.92 9.55-5.63 17.73-8.66 25.64-9.5 2.13-.23 6.9-.22 9.1.01 5.46.57 11.35 2.41 17.02 5.31 7.24 3.71 13.53 8.3 25.89 18.9 11.78 10.11 15.04 12.72 20.43 16.37 11.46 7.77 20.79 10.84 35.07 11.53 4.47.22 17.54.08 19.37-.21.22-.03 1.46-.11 2.74-.17 2.58-.12 4.71-.24 6.41-.36.62-.04 2.22-.13 3.55-.18 1.33-.06 2.7-.13 3.03-.17.56-.06 10.64-.13 47.22-.34 7.81-.04 18.71-.08 24.21-.08h10.01v-.37-.37l-38.16.12c-20.98.07-38.9.15-39.81.19s-2.89.12-4.42.17c-1.52.06-3.28.14-3.9.18-1.56.11-3.55.23-5.72.34-1 .05-2.28.13-2.86.17-.57.04-2.36.12-3.99.18s-3.14.14-3.38.18c-.54.09-13.57.08-14.29-.01-.28-.03-1.39-.11-2.45-.17s-2.12-.14-2.34-.18-.88-.12-1.45-.18c-12.75-1.34-23.04-6.09-36.39-16.78-2.62-2.1-6.34-5.23-12.39-10.42-9.17-7.87-13.45-11.22-18.8-14.73-3.29-2.16-4.86-3.07-7.62-4.46-5.35-2.68-10.49-4.33-15.8-5.07-1.78-.28-7.05-.46-8.71-.33z"/><path d="m172.42 86.5101c-.05.04-.69.13-1.44.19-2.92.25-6.58 1.05-10.19 2.24-7.1 2.34-14.1 6.09-26.23 14.0499-15.37 10.09-22.61 13.86-30.84 16.05-2.42.64-2.95.74-12.3 2.33-8.51 1.44-15.57 2.93-20.19 4.26-5.48 1.57-8.56 2.72-17.67 6.61-8.59 3.67-13.46 5.63-18.12 7.31-7.38 2.66-15.41 4.73-21.59 5.57-2.67.36-2.74.39-2.43.89.26.42 7.07-.78 12.95-2.29 8.02-2.05 15.01-4.61 29.54-10.82 12.28-5.25 17.2-6.83 27.98-9 4.66-.94 4.85-.97 12.56-2.29 8.68-1.48 11.51-2.22 16.72-4.36 6.02-2.47 11-5.3 22.53-12.78 9.34-6.0599 10.59-6.8399 14.42-8.9699 8.72-4.86 16.78-7.65 23.5-8.14 9.08-.66 16.96 1.02 25.99 5.53 7.69 3.84 13.57 8.0199 28.71 20.4399 12.77 10.47 18.68 14.66 25.9 18.37 7.95 4.08 15.63 6.08 25.73 6.69 4.21.25 20.04.11 22.68-.21.25-.03 1.77-.11 3.4-.18s3.14-.14 3.38-.17c1.84-.21 8.85-.35 16.72-.32 68.49.22 70.91.22 71.08-.24.16-.41-.29-.57-1.34-.49-.52.04-13.08.06-27.9.04-53.02-.07-56.45-.05-59.86.31-.38.04-1.66.12-2.86.17-4 .18-5.8.28-6.93.36-2.11.16-14.8.21-17.07.07-13.05-.83-20.93-3.12-30.81-8.95-5.75-3.39-11-7.32-23.58-17.62-9.06-7.42-13.51-10.81-18.47-14.0599-8.73-5.73-16.53-8.97-24.6-10.22-1.66-.24-9.17-.55-9.37-.37z"/><path d="m174.66 99c-.04.03-.88.11-1.89.17-1 .06-2.13.16-2.51.22-6.2.93-11.45 2.64-17.76 5.79-5.22 2.61-8.3 4.47-18.37 11.1-10.43 6.87-13.64 8.81-18.9 11.45-3.31 1.66-6.27 2.89-9.25 3.85-3.62 1.16-5.09 1.46-16.2 3.32-11.04 1.85-16.05 2.82-21.49 4.16-4.47 1.11-5.77 1.49-14.81 4.42-11.59 3.75-16.91 5.34-23.39 7.01-5.16 1.33-13.05 2.94-16.62 3.4-1.65.21-2.14.45-1.73.84.21.2 4.64-.48 9.44-1.44 9.08-1.82 18.31-4.42 34.17-9.62 11.84-3.88 16.48-4.97 33.3-7.81 10.62-1.79 13.08-2.27 15.78-3.04 3.45-.99 6.84-2.34 10.9-4.33 5.34-2.62 8.7-4.64 19.35-11.66 8.02-5.28 9.66-6.31 13.27-8.37 8.28-4.73 15-7.23 22.3-8.33 2.36-.35 9.36-.31 11.87.08 9.45 1.46 18.28 5.25 29.63 12.73 4.66 3.07 7.62 5.17 17.93 12.72 18.63 13.64 29.18 18.7 42.71 20.47 2.2.29 2.79.35 6.41.65 2.82.24 15.33.31 20.27.11 13.06-.51 20.34-.52 32.92-.05 2.72.1 6.43.22 10.66.35 1.82.05 4.07.13 5.02.17s3.95.12 6.67.17c2.72.06 5.76.14 6.76.18 2.55.11 29.15.23 31.31.13 1.61-.07 1.78-.11 1.78-.41 0-.33-.32-.34-14.16-.36-7.8-.01-14.94-.04-15.9-.07s-4.3-.1-7.45-.16-6.3-.14-7.02-.18-3.05-.11-5.2-.16-4.87-.13-6.06-.18c-5.68-.21-7.31-.27-11.18-.39-7.5-.24-25.67-.1-28.76.22-.87.09-16.74.1-17.76.01-.53-.05-2.08-.17-3.47-.27-12.93-.98-22.42-4.37-35.05-12.49-3.79-2.44-7.81-5.26-15.28-10.73-7.45-5.45-9.93-7.22-13.6-9.66-13.5-9.01-23.7-13.08-34.81-13.89-2.45-.18-3.71-.22-3.83-.12z"/><path d="m174.67 113.01c-.05.05-.75.13-1.56.19-5.28.38-12.16 2.37-18.19 5.28-5.35 2.58-9.32 4.98-19.68 11.91-4.57 3.06-9.68 6.41-11.35 7.45-7.94 4.94-14.69 8.04-20.95 9.62-2.33.59-11.8 2.33-25.3 4.67-4.23.73-17.33 2.91-18.8 3.12-.67.1-2.46.37-3.99.62-3.87.61-8.68 1.33-16.81 2.49-6.64.95-21.64 2.91-24.74 3.22-1.07.11-1.16.15-1.16.54 0 .38.06.41.56.33.31-.05 2.5-.33 4.89-.62 5.34-.65 11.52-1.47 20.1-2.67 12.02-1.69 30.63-4.63 42.88-6.79 23.27-4.1 24.6-4.4 31.02-7.13 5.8-2.47 11.18-5.63 22.82-13.4 4.7-3.14 9.64-6.38 11-7.23 10.38-6.41 18.23-9.52 26.74-10.6 3.74-.48 10.26-.16 14.55.71 10.98 2.22 21 6.87 39.68 18.44 24.52 15.18 33.81 18.95 51.03 20.7.91.09 2.65.21 3.9.27s2.48.14 2.77.19 6.1.12 12.91.16c21.47.13 21.4.13 28.68.69 2.96.23 13.06.9 15.59 1.05.95.05 2.08.13 2.51.17s1.59.11 2.6.16c1 .05 2.25.13 2.77.17s1.85.12 2.95.18c1.09.06 2.42.14 2.95.17.53.04 2.08.12 3.47.17 1.39.06 2.75.13 3.03.16.29.03 2.11.12 4.07.18 1.96.07 3.98.16 4.51.2.52.04 5.81.12 11.74.18 10.67.1 10.79.1 10.79-.24s-.18-.35-10.09-.48c-5.54-.07-10.44-.15-10.87-.18s-2.34-.1-4.25-.16-3.89-.14-4.42-.18-2.11-.12-3.55-.17-2.95-.13-3.38-.17-1.72-.12-2.86-.17c-1.14-.06-2.55-.14-3.12-.17-1.18-.08-3.66-.23-5.72-.35-.76-.04-1.89-.12-2.51-.16s-1.77-.12-2.56-.17c-3.08-.2-4.32-.29-5.23-.36-1.05-.08-5.42-.37-7.88-.52-.87-.05-1.87-.13-2.25-.16-.38-.04-1.7-.12-2.95-.18s-2.52-.14-2.86-.18c-.33-.04-5.25-.11-10.92-.16-18.18-.15-25.03-.24-25.47-.32-.24-.04-1.18-.13-2.08-.19-7.05-.48-14.12-1.77-19.68-3.57-8.68-2.82-16.72-7-34.03-17.69-13.84-8.55-22.46-12.97-30.67-15.75-4.04-1.36-8.82-2.48-12.22-2.86-.57-.06-1.23-.15-1.47-.19-.68-.14-6.84-.32-6.94-.22z"/><path d="m177.78 128.27c-.04.04-1.05.12-2.24.17-9.27.45-19.13 4.18-31.14 11.79-1.13.71-3.79 2.48-5.94 3.92-17.34 11.7-21.02 13.92-28.19 17.04-6.27 2.73-13.29 4.3-23.7 5.32-1.06.1-2.21.22-2.6.26-.92.1-2.5.21-5.98.43-1.58.1-3.44.21-4.16.25-1.23.07-9.6.15-38.12.35-6.91.05-12.87.12-13.26.16-.38.04-2.08.12-3.76.19s-3.21.14-3.38.17-.84.06-1.48.07c-1.14.02-1.17.03-1.17.47s.03.45.82.35c.45-.06 1.6-.14 2.56-.19 3.03-.15 5.13-.25 7.5-.36 1.27-.06 11.99-.13 23.82-.16s22.11-.09 22.82-.15c.72-.05 2.43-.14 3.81-.2 3.03-.12 9.35-.55 11.61-.8.9-.1 2.04-.22 2.51-.26 3.29-.33 8.98-1.18 11.47-1.72 5.13-1.1 9.82-2.81 15.39-5.58 5.47-2.73 8.01-4.32 24.69-15.55 14.17-9.53 23.47-13.67 33.53-14.92 1.78-.22 9.81-.24 10.74-.02.19.04.88.13 1.56.2 1.98.2 5.89.9 8.58 1.55 8.06 1.93 16.55 5.18 29.72 11.37 13.43 6.31 17.3 8.05 22.61 10.14 12.87 5.06 21.61 6.81 39.59 7.96.67.04 2.18.12 3.38.17s2.75.13 3.47.18c.71.05 2.51.13 3.99.17 1.47.05 3.27.13 3.99.17.72.05 2.46.13 3.9.18s2.95.13 3.38.16c.43.04 1.63.11 2.69.17 1.77.09 4.93.34 6.58.52.38.04 1.16.12 1.73.18s1.31.14 1.65.18c1.58.19 3.64.42 4.51.5 1.77.18 4.24.45 4.85.54.33.05 3.1.36 6.15.69s5.86.65 6.24.69c.38.05 1.85.2 3.29.35 1.44.14 3.68.38 5.02.52 1.33.14 3.79.38 5.46.52 1.66.14 3.35.3 3.73.34s1.32.12 2.08.18 1.78.14 2.25.17c.48.04 2.15.15 3.73.26s3.21.22 3.64.26 2.03.12 3.55.17c1.52.06 3.12.14 3.55.17.43.04 3.25.12 6.28.19 5.48.12 5.5.12 5.5-.23 0-.33-.13-.36-2.12-.45-1.17-.05-4.06-.14-6.45-.19-4.9-.1-9.27-.32-14.47-.71-4.87-.37-6.26-.48-9.7-.78-2.15-.19-4.25-.38-4.68-.43s-1.59-.17-2.6-.27c-2.95-.29-3.52-.35-4.16-.43-.33-.04-1.04-.11-1.56-.16-1.58-.15-8.73-.94-14.99-1.66-3.24-.37-6.4-.72-7.02-.78s-1.32-.14-1.56-.18c-.56-.1-5.37-.55-7.28-.69-.81-.06-1.9-.14-2.43-.17-.53-.04-1.77-.11-2.77-.16s-2.4-.13-3.12-.18c-1.79-.11-4.66-.25-7.45-.35-1.28-.05-3.08-.13-3.99-.18s-2.62-.13-3.81-.17c-1.2-.05-2.75-.13-3.47-.17-.71-.05-2.04-.13-2.95-.18-9.77-.57-19.32-2-25.97-3.89-8.4-2.38-14.42-4.87-34.5-14.3-15.13-7.1-25.06-10.6-34.65-12.19-3.12-.52-4.1-.64-6.5-.78-.77-.05-2.09-.13-2.95-.19-.87-.03-1.6-.05-1.65-.01z"/><path d="m177.19 144.18c-6.95.6-14.46 2.89-21.4 6.52-5.69 2.98-9.67 5.52-20.01 12.78-12.08 8.47-17.23 11.63-23.65 14.49-6.36 2.83-12.09 4.3-19.23 4.92-.62.05-1.54.14-2.04.19-1.62.15-9.58.09-12.42-.1-2.56-.17-5.39-.43-6.84-.62-.33-.04-1.58-.2-2.77-.35-3.5-.44-10.26-1.54-17.93-2.92-13.43-2.42-21.68-3.65-26.94-4.01-.9-.06-1.83-.14-2.05-.17s-2.23-.12-4.46-.18l-4.05-.12v.44.44l3.42.02c1.89.01 3.66.05 3.94.1.29.04 1.39.12 2.44.18s2.11.13 2.34.16.95.11 1.63.17 1.44.15 1.73.19 1.49.2 2.69.35c4.07.51 11.31 1.71 20.88 3.46 14.95 2.73 23.54 3.75 31.88 3.78 9.76.04 16.03-.84 22.92-3.21 8.34-2.87 15.23-6.85 30.27-17.47 8.98-6.34 14.44-9.77 19.75-12.39 7.07-3.49 12.85-5.22 19.65-5.88 1.42-.14 7.52-.14 9.5 0 11 .76 20.86 2.98 39.38 8.86 11.78 3.74 13.94 4.41 18.45 5.71 9.69 2.79 17.84 4.49 25.3 5.26.95.1 2.47.26 3.38.35.9.09 2.12.22 2.69.27s1.31.13 1.65.17 1.61.16 2.86.26 2.64.22 3.12.26 2.81.23 5.2.42c8.63.69 10.93.87 11.87.96 2.08.2 2.88.27 3.47.34.33.04 2.13.23 3.99.43 5.98.64 8.85 1.06 21.66 3.19 6.97 1.16 11.15 1.85 15.94 2.61 2.48.39 9.59 1.44 11.26 1.65 4.14.54 9.75 1.22 10.83 1.31.68.06 1.4.14 1.65.18 1.89.29 13.38 1.08 16.89 1.15 2.03.04 2.08.03 2.13-.35s.02-.39-1.65-.39c-.94 0-2.09-.04-2.56-.09-.48-.05-2.46-.17-4.42-.27s-3.82-.21-4.16-.25-1.3-.12-2.17-.18-1.67-.14-1.82-.16c-.14-.03-.85-.1-1.56-.16s-1.57-.14-1.91-.18c-.33-.04-1.42-.15-2.43-.26-1-.11-1.99-.22-2.19-.25-.21-.03-.82-.11-1.38-.18-1.05-.12-5.15-.66-7.26-.96-5.27-.73-16.3-2.48-27.39-4.34-7.94-1.33-8.34-1.39-12.02-1.9-1.39-.19-2.78-.38-3.12-.43-2.12-.29-7.16-.83-11.35-1.21-1.63-.15-3.37-.31-3.9-.35-.52-.05-2.48-.2-4.33-.35-1.85-.14-3.81-.3-4.33-.35-.53-.05-1.96-.16-3.21-.26s-2.7-.21-3.25-.26c-.54-.05-1.49-.13-2.08-.18s-1.36-.13-1.69-.16c-.34-.04-1.14-.11-1.82-.16-1.12-.09-1.94-.17-3.55-.36-.33-.04-1.39-.16-2.34-.26-7.03-.77-12.25-1.73-19.49-3.57-5.53-1.4-9.96-2.73-22.35-6.68-20.46-6.53-28.71-8.44-41.36-9.58-2.05-.18-8.11-.23-9.88-.07z"/><path d="m181.43 160.14c-.05.04-.83.13-1.73.2-6.64.47-13.69 2.62-21.05 6.41-6.12 3.15-9.63 5.48-24 15.9-7.55 5.48-13.28 9.13-18.21 11.6-6.91 3.46-12.77 5.28-19.3 5.98-2.43.26-8.21.35-10.31.16-9.26-.84-17.17-2.97-32.26-8.68-13.39-5.07-17.77-6.6-23.27-8.13-5.42-1.51-11.22-2.6-15.72-2.95-1.47-.12-1.52-.11-1.52.24 0 .21.06.37.13.37s.29.04.48.07 1 .11 1.82.17c3.61.28 8.58 1.19 13.32 2.45 5.64 1.5 10 2.99 21.99 7.53 16.69 6.32 23.67 8.33 32.87 9.44 3.71.45 10.11.45 13.26-.01 7.4-1.07 12.73-2.8 19.67-6.4 5.89-3.05 9.82-5.65 21.75-14.32 6.24-4.54 9.46-6.77 12.56-8.71 10.78-6.73 19.22-9.8 28.87-10.51 2.03-.15 14.37-.11 15.49.04.28.04 1.42.12 2.51.19 1.09.06 2.15.14 2.34.18s1 .12 1.82.17c.81.06 2.44.22 3.64.36s2.55.29 3.03.35c.49.05 1.06.13 1.3.16.24.04.81.11 1.3.17 2.36.28 11.28 1.62 17.24 2.6 20.83 3.42 29.7 4.6 37.77 5.02 1.09.06 2.35.14 2.77.17.43.04 1.37.11 2.08.17 8.09.63 18.78 2.06 29.02 3.89 5.18.93 13.31 2.54 28.42 5.65 7.47 1.54 14.93 3.02 17.76 3.54 5.2.95 7.94 1.42 10.57 1.82 1.58.24 3.29.51 3.81.61.53.09 1.92.29 3.12.44s2.36.31 2.6.35c1.05.17 6.6.77 9.44 1.02 7.71.68 8.78.71 8.84.24.03-.22-.09-.32-.41-.33-.26-.01-.57-.04-.72-.06-.14-.02-1.3-.1-2.58-.17s-2.48-.15-2.69-.18c-.2-.03-1.02-.1-1.84-.16-7.8-.58-20.45-2.47-34.22-5.13-5.2-1-7.5-1.47-19.23-3.89-13.86-2.86-20.89-4.2-28.5-5.44-10.95-1.78-18.28-2.64-27.64-3.22-5.56-.34-14.55-1.33-20.53-2.25-4.59-.71-9.13-1.43-14.38-2.28-11.52-1.87-10.88-1.77-16.37-2.58-3.05-.45-8.37-1.11-11.18-1.38-.52-.05-1.7-.17-2.6-.26s-2.39-.22-3.29-.28-1.92-.15-2.25-.2c-.82-.06-15.68-.24-15.79-.14z"/><path d="m210.19 174.87c-.05.04-2.5.13-5.46.2s-5.72.15-6.15.18-1.94.11-3.38.17-2.79.14-3.03.18-1.25.12-2.25.18c-8.07.48-13.78 1.44-19.08 3.21-9.11 3.04-16.17 7.19-31.95 18.79-14.88 10.94-21.94 15.06-30.81 18.02-5.35 1.78-9.49 2.5-14.62 2.52-4.8.02-8.72-.57-13.52-2.02-7.23-2.19-13.76-5.43-27.69-13.77-8.98-5.37-11.82-6.98-16.37-9.24-6.6-3.28-12.49-5.41-17.76-6.42-1.33-.26-2.59-.5-2.79-.54-.38-.08-.64.25-.44.56.06.1.74.27 1.5.39 5.37.83 12.04 3.14 18.75 6.48 4.78 2.38 7.68 4.02 17.38 9.82 6.98 4.18 9.86 5.8 14.12 7.97 8.21 4.17 14.01 6.16 21.05 7.22 2.75.41 8.68.41 11.44-.01 5.93-.9 12.18-2.98 18.28-6.07 6.26-3.18 11.16-6.36 21.83-14.21 6.1-4.48 8.89-6.47 12.04-8.58 10.95-7.34 20.08-11.21 29.37-12.47 3.15-.43 8.26-.89 12.65-1.14 1.06-.06 2.25-.14 2.69-.17.43-.03 2.72-.11 5.11-.17s4.44-.15 4.57-.19c.31-.1 25.68-.08 28.95.02 6.86.21 15.33.32 29.28.35 8.44.02 15.96.09 16.72.16s1.78.15 2.25.19c1.3.11 4.44.43 5.02.51.29.04 1.18.16 1.99.26 10.13 1.32 22.56 4.3 41.93 10.08 23.89 7.13 36.95 10.09 49.12 11.16.68.06 1.38.13 1.59.16.26.04.4-.05.46-.28.12-.42.08-.44-1.44-.57-2.61-.23-3.27-.31-6.84-.81-11.12-1.56-20.52-3.85-43.01-10.48-18.83-5.55-27.18-7.63-37.41-9.33-5.39-.9-9.05-1.32-14.1-1.64-1.19-.08-8.09-.15-15.33-.16-12.61-.02-18.81-.09-25.99-.29-4.74-.13-28.56-.31-28.67-.22z"/><path d="m273.78 181.09c-.91.08-3.12.28-4.94.43-2.96.24-9.1.83-10.92 1.03-.38.04-2.17.24-3.99.44-11.08 1.2-27.53 3.41-51.55 6.93-3.28.48-8.75 1.26-12.13 1.73s-7.09 1.02-8.23 1.21c-8.68 1.48-17.03 4.96-26.63 11.08-3.67 2.34-6.81 4.56-14.35 10.12-3.76 2.78-7.78 5.72-8.92 6.53-11.07 7.88-20.06 12.35-28.92 14.39-9.41 2.17-17.39.86-26.75-4.38-5.49-3.07-9.84-6.32-19.96-14.88-12.32-10.42-17.47-14.15-24.52-17.77-4.39-2.25-8.96-3.96-13.64-5.1-2.46-.6-2.66-.62-2.81-.23-.06.16-.09.29-.06.31.02.02.98.25 2.12.52 8.82 2.05 16.82 5.94 25.56 12.44 3.13 2.33 6.5 5.04 11.9 9.61 12.23 10.33 16.82 13.66 23.18 16.86 9.66 4.86 17.47 5.6 27.81 2.64 9.78-2.79 18.23-7.55 33.35-18.77 11.61-8.62 15.99-11.61 21.62-14.79 6.55-3.69 13.29-6.32 19.35-7.54 1-.2 5.63-.91 10.31-1.58 4.67-.67 12.82-1.84 18.11-2.61 5.28-.77 11.02-1.59 12.74-1.82s3.9-.54 4.85-.68 2.95-.42 4.42-.61c1.48-.19 4.16-.54 5.98-.78s4.53-.59 6.06-.78c1.52-.19 3.05-.39 3.38-.43.33-.05 2.01-.24 3.73-.43s3.39-.38 3.73-.42 1.11-.13 1.73-.19 1.24-.14 1.39-.16c.14-.03.88-.1 1.65-.16.76-.06 1.58-.14 1.82-.18s.94-.11 1.56-.17c1.32-.11 2.35-.21 3.55-.35.48-.05 1.84-.17 3.03-.27 1.2-.1 2.64-.22 3.22-.27 11.26-1.05 22.59.3 36.46 4.34 6.49 1.89 11.8 3.76 25.47 8.96 14.54 5.53 20.72 7.69 27.38 9.57 6.6 1.86 13.58 3.32 18.49 3.85 1.02.11 1.09.09 1.09-.25 0-.4 0-.4-2.69-.73-9.34-1.16-21.52-4.62-37.43-10.65-19.86-7.53-24.41-9.16-31.19-11.19-7.52-2.25-15.49-3.93-21.23-4.49-1.09-.1-2.27-.23-2.6-.28-1.15-.17-9.95-.2-11.58-.05z"/><path d="m279.29 186.86c-.03.02-.9.09-1.94.16-3.96.25-13.84 1.92-21.68 3.66-7.42 1.65-13.15 3.11-24.95 6.35-26.2 7.18-32.35 8.7-44.27 10.87-7 1.28-11.26 2.53-16.63 4.9-7.32 3.23-13.76 7.28-25.8 16.24-14.54 10.82-19.13 13.91-25.75 17.35-6.5 3.37-13.7 5.8-19.32 6.5-1.43.18-5.28.13-6.93-.09-4.65-.62-9.51-2.6-14.47-5.91-5.54-3.69-10.42-8.24-21.29-19.83-11.24-11.99-16.18-16.52-22.72-20.86-4.29-2.85-8.94-5.08-13.91-6.66-3.48-1.11-3.34-1.09-3.4-.44-.01.1.92.46 2.06.79 5.58 1.61 11.69 4.62 16.81 8.27 5.22 3.72 10.37 8.53 18.8 17.52 10.18 10.86 14.54 15.17 18.99 18.73 8.23 6.6 16.31 9.75 24.07 9.37 6.43-.32 15.37-3.21 23.18-7.51 6.19-3.41 10.53-6.34 21.87-14.79 12.35-9.21 17.35-12.55 23.74-15.86 7.2-3.73 12.15-5.37 21.05-7.01 10.82-1.99 20.19-4.25 37.69-9.09 21.61-5.98 31.63-8.41 42.47-10.31 2.95-.51 7.47-1.16 9.65-1.39 1.82-.18 9.28-.26 10.17-.11.24.04.97.12 1.65.19 1.85.17 3.6.43 5.98.88 9.92 1.9 19.72 5.46 36.56 13.29 2.04.95 4.19 1.95 4.76 2.22s2.13.99 3.47 1.61c16.24 7.52 26.8 11.17 37.24 12.87 1.23.2 1.59.21 1.69.05.31-.5.41-.47-2.78-1-10.21-1.71-19.61-5.11-39.09-14.13-7.68-3.55-7.6-3.52-11.52-5.29-16.13-7.27-27.32-10.59-38.47-11.43-2.12-.17-6.82-.23-6.98-.11z"/><path d="m278.39 193.73c-5 .52-13.81 2.68-22.58 5.55-6.84 2.23-10.73 3.69-29.68 11.13-17.74 6.96-26.85 9.82-38.81 12.19-6.81 1.35-10.32 2.34-14.99 4.26-7.94 3.26-15.11 7.7-27.46 17-9.56 7.2-10.63 8-12.65 9.46-2.53 1.83-7.37 5.03-9.62 6.37-6.51 3.88-12.75 6.61-18.71 8.19-8.47 2.25-15.69 1-23.39-4.06-2.97-1.95-5.28-3.9-8.77-7.37-4.6-4.59-7.55-8.1-19.81-23.57-5.52-6.97-10.36-12.25-14.52-15.86-5.78-5.01-11.57-8.42-18.3-10.75-1.99-.69-2.21-.73-2.31-.46-.06.17-.06.35 0 .41s.93.38 1.93.72c8.32 2.83 15.47 7.54 22.7 14.96 3.82 3.92 6.15 6.67 12.56 14.8 8.44 10.71 12.44 15.46 16.63 19.74 7.54 7.69 14 11.6 21.41 12.95 1.99.36 6.41.4 8.32.08 6.35-1.08 14.81-4.47 22.33-8.93 5.57-3.3 9.2-5.87 22.54-15.95 13.57-10.25 21.33-14.89 30.36-18.16 3.78-1.37 5.98-1.93 12.7-3.24 11.06-2.15 22.54-5.85 41.41-13.35 20.95-8.32 30.64-11.61 41.26-14.01 9.56-2.16 17.03-2.06 26.63.35 8.17 2.05 18.4 6.38 30.88 13.07 1.72.92 3.94 2.11 4.94 2.64s3.26 1.74 5.02 2.68c15.54 8.3 26.44 12.65 35.88 14.3 1.82.32 1.86.32 1.94 0 .1-.38.12-.38-1.96-.74-4.2-.73-9.93-2.43-15.21-4.53-4.2-1.67-7.33-3.1-13.03-5.96-4.57-2.29-6.97-3.55-12.86-6.71-20.55-11.05-30.49-15-42.42-16.85-2.65-.44-9.73-.62-12.36-.35z"/><path d="m281.88 201.09c-.02.02-.73.08-1.59.14-6.69.48-17.81 3.87-29.54 9.01-4.39 1.92-8.52 3.88-16.2 7.66-14.36 7.08-18.85 9.17-25.28 11.78-7.95 3.23-14.16 5.11-22.28 6.76-4.57.93-6.15 1.34-9.55 2.5-6.67 2.28-12.87 5.48-20.6 10.65-3.13 2.1-7.81 5.56-18.54 13.73-9.55 7.27-15.25 11-21.83 14.28-4.73 2.36-8.88 3.94-13.13 5.02-2.75.7-4.22.89-6.9.89-9.2 0-17.47-4.94-26.58-15.87-3.51-4.21-9.28-12.08-15.07-20.53-7.58-11.07-11.51-16.03-16.66-21.05-4.29-4.18-8.58-7.25-13.41-9.63-2.6-1.28-6.71-2.94-7.28-2.94-.14 0-.26.16-.26.33 0 .25.23.4.92.63 7.54 2.46 14.67 7.07 20.92 13.53 4.33 4.47 7.72 8.84 14.72 18.96 7.14 10.33 12.16 17.17 15.69 21.4 2.28 2.74 6.72 7.22 8.74 8.83 4.93 3.92 9.67 6.13 14.9 6.94 1.4.22 4.71.22 6.5 0 6.16-.75 15.39-4.37 23.39-9.19 5.23-3.14 9.65-6.28 19.89-14.1 13.17-10.06 17.97-13.31 24.99-16.94 6.6-3.41 11.68-5.17 19.41-6.73 7.77-1.56 14.09-3.47 22.01-6.65 6.25-2.51 12.48-5.39 24.17-11.2 16.24-8.07 24.94-11.79 33.89-14.49 7.59-2.29 11.37-2.94 17.12-2.94 8.17-.01 16.01 1.99 26.2 6.68 1.54.71 3.42 1.61 4.16 2 5.97 3.14 9.53 5.17 18.44 10.47 8.04 4.79 12.57 7.36 16.98 9.66 8.23 4.29 15.81 7.1 22.72 8.44.99.19 1.83.35 1.85.35.03 0 .03-.16 0-.36-.05-.32-.33-.42-2.46-.86-9.91-2.03-18.99-6.17-36.84-16.79-12.82-7.63-15.57-9.18-21.4-12.06-10.29-5.08-18.12-7.52-26.34-8.22-1.61-.14-5.74-.2-5.87-.09z"/><path d="m281.06 209.85c-7.55.53-18.59 4.07-29.82 9.57-5.26 2.57-8.91 4.54-18.7 10.08-9.11 5.15-11.77 6.59-16.6 9.01-10.71 5.35-19.18 8.35-28.62 10.13-8.51 1.6-15.27 4.11-22.89 8.5-6 3.45-10.64 6.71-21.21 14.91-13.03 10.1-17.27 13.07-23.93 16.77-5.84 3.25-12.89 5.97-17.95 6.94-9.86 1.89-18.76-1.71-27.25-11.01-4.85-5.31-11.06-14.1-19.76-27.97-7.02-11.19-10.82-16.38-15.67-21.36-5.54-5.69-11.39-9.58-18.17-12.06-2.17-.79-3.03-.94-3.1-.54-.04.19.55.46 2.25 1.04 1.27.43 3.58 1.41 5.15 2.19 4.8 2.36 8.4 4.99 12.67 9.25 5.25 5.24 8.66 9.86 16.7 22.61 10.94 17.36 17.13 25.69 22.95 30.88 8.76 7.81 17.34 9.89 28.09 6.77 3.9-1.13 8.6-3.02 12.3-4.96 7.16-3.74 13.27-7.92 25.56-17.47 9.15-7.11 14.29-10.83 18.8-13.59 8.98-5.5 15.98-8.31 24.95-10.04 10.77-2.07 19.22-5.1 30.93-11.08 4.86-2.48 7.52-3.93 16.37-8.94 18.87-10.67 27.62-14.62 38.6-17.43 4.53-1.16 6.36-1.41 10.95-1.47 6.32-.09 10.71.63 17.15 2.84 8.48 2.91 15.32 6.63 33.53 18.25 13 8.3 19.84 11.99 27.53 14.86 3.03 1.13 7.03 2.27 9.79 2.78 1.8.34 2.15.36 2.28.15.26-.42.19-.47-1.02-.67-5.94-1.01-11.83-3.05-18.83-6.5-6.28-3.1-10.9-5.84-24.6-14.59-19.6-12.51-30.02-16.94-42.19-17.91-2.4-.16-3.1-.16-6.24.06z"/><path d="m280.37 220.1c-.05.04-.62.13-1.3.19-4.29.4-12.11 2.53-18.14 4.94-7.67 3.07-14.35 6.5-27.17 13.97-11.61 6.77-17.26 9.86-22.27 12.2-9.24 4.31-16.19 6.62-24.34 8.09-10.11 1.82-18.66 5.43-29.13 12.3-4.06 2.67-7.36 5.08-15.66 11.44-10.48 8.04-14.65 11.01-19.93 14.19-7.62 4.6-16.03 8.02-22.27 9.04-1.92.32-5.58.36-7.45.08-7.9-1.16-15.02-6.18-22.64-15.95-3.4-4.36-8.9-12.46-13.49-19.84-3.96-6.38-6.93-11.04-8.55-13.43-7.14-10.52-13.81-17-21.72-21.13-3.24-1.69-8.38-3.64-8.84-3.36-.47.29.1.66 1.94 1.26 4.82 1.59 8.59 3.57 12.74 6.69 6.87 5.16 12.43 12.03 21.23 26.24 6.06 9.77 10.86 17.03 14.63 22.09 7.1 9.53 13.51 14.93 20.34 17.14 1.59.51 2.36.69 4.42 1.03.24.04 1.2.12 2.13.18 7.7.51 19.68-3.93 31.59-11.71 4.07-2.66 9.77-6.84 17.24-12.63 19.23-14.92 29.49-20.32 43.33-22.86 11.73-2.15 22.09-6.23 36.72-14.44.86-.48 3.97-2.27 6.93-3.99s6.89-3.98 8.75-5.05c15.54-8.93 26.68-13.52 37.51-15.44 2.35-.42 3.01-.46 6.93-.47 4.8-.01 7.18.26 11.31 1.27 9.44 2.31 18.4 6.76 34.78 17.3 13.13 8.45 17.16 10.84 23.56 13.98 6.76 3.32 12.18 5.23 18.02 6.34 2.17.41 2.34.42 2.34.01 0-.28-.26-.38-1.61-.62-5.82-1.06-11.89-3.17-18.47-6.43-5.87-2.91-10.38-5.56-20.9-12.31-7.68-4.92-7.43-4.77-10.48-6.64-10.59-6.48-19.04-10.37-26.77-12.32-3.65-.92-6.41-1.26-10.92-1.35-2.36-.04-4.34-.05-4.39 0z"/><path d="m280.63 231.96c-4.67.46-9.06 1.45-14.73 3.3-9.64 3.15-16.53 6.52-36.65 17.93-18.94 10.74-28.89 14.89-41.74 17.4-6.45 1.26-10.43 2.46-15.84 4.77-8.13 3.47-14.55 7.46-29.66 18.43-10.05 7.29-14.55 10.32-19.75 13.29-8.14 4.65-16.37 7.84-22.39 8.7-2.18.31-5.92.24-7.94-.15-5.91-1.15-11.45-4.48-17.08-10.24-5.32-5.46-10.74-12.87-22.32-30.56-5.04-7.69-9.2-13.11-13.36-17.4-6.19-6.37-12.32-10.35-19.91-12.94-1.72-.58-2.1-.62-2.1-.19 0 .24.4.44 1.77.89 5.06 1.65 9.98 4.34 14.49 7.93 2.07 1.65 6.76 6.31 8.69 8.63 3.64 4.39 6.07 7.85 15.82 22.61 2.35 3.55 7.54 10.91 9.54 13.52 3.78 4.92 7.49 8.96 10.69 11.65 4.19 3.51 8.75 5.82 13.52 6.84 1.85.4 7.23.45 9.1.08 6.15-1.19 13.91-4.21 20.83-8.1 6.01-3.38 10.33-6.27 21.71-14.54 11.7-8.5 17.02-11.96 23.48-15.28 7.2-3.7 12.54-5.56 20.31-7.09 13.68-2.69 23.82-6.9 43.02-17.84 16.48-9.39 21.83-12.15 29.7-15.32 7.33-2.96 15.23-5.09 20.38-5.51 7.13-.58 14.59.57 22.4 3.43 8.11 2.98 13.74 6.01 33.16 17.89 5.22 3.19 9.18 5.49 12.61 7.33 8.63 4.62 16.64 7.65 23.41 8.87l1.8.32v-.38c0-.34-.13-.4-1.34-.6-.74-.12-2.5-.51-3.94-.88-9.58-2.45-18.28-6.72-36.3-17.84-9.17-5.66-13.34-8.07-18.63-10.74-9.56-4.85-17.19-7.31-24.95-8.06-2.41-.25-6.18-.32-7.8-.15z"/><path d="m281.23 244.87c-.05.05-.75.13-1.56.19-5.32.39-13.9 2.72-21.75 5.93-6.01 2.45-15.85 7.33-22.96 11.38-7.68 4.37-17.72 9.63-22.87 11.97-9.84 4.47-15.68 6.33-26.42 8.43-7.14 1.39-13.41 3.61-20.71 7.3-6.1 3.09-10.31 5.65-22.04 13.44-9.03 5.99-12.91 8.46-16.76 10.67-8.77 5.03-17.27 8.48-24.31 9.87-1.6.32-2.53.39-5.08.38-2.77-.01-3.35-.06-5.18-.48-3.76-.86-6.49-2.06-9.95-4.37-7.4-4.94-13.67-12.26-28.19-32.89-2.65-3.76-6.96-9.46-9.03-11.96-2.46-2.95-7.45-7.95-9.85-9.86-4.2-3.35-8.58-5.9-13.19-7.69-3.12-1.21-4.39-1.55-4.59-1.24-.09.14-.16.28-.16.34 0 .05.61.27 1.35.49 5.08 1.48 11.26 4.8 15.98 8.58 3.49 2.8 7.61 7.02 11.19 11.45 2.02 2.5 5.37 7.05 9.51 12.91 5.86 8.3 10.89 14.94 14.8 19.58 2.25 2.67 6.53 6.97 8.51 8.55 4.5 3.6 8.85 5.8 13.6 6.88 2.3.52 6.65.64 9.24.26 5.39-.8 13.24-3.61 20.57-7.37 5.99-3.08 10.26-5.68 20.27-12.35 12.53-8.35 17.86-11.61 24.15-14.75 7.42-3.7 14.02-5.95 21.33-7.27 8.41-1.52 15.47-3.79 24.69-7.95 5.38-2.43 9.55-4.59 23.04-11.99 13.55-7.42 21.35-11.11 29.13-13.77 5.15-1.76 10.23-3.03 14.24-3.55 2.18-.28 8.18-.4 9.82-.18.48.06 1.49.19 2.25.29 3.83.48 8.72 1.7 12.87 3.21 7.44 2.69 14.09 6.01 28.02 13.97 8.54 4.88 11.52 6.53 15.51 8.59 9.06 4.67 17.46 7.76 24.5 9.02l1.8.32.1-.36c.05-.19.08-.37.06-.38s-.97-.2-2.11-.41c-10.05-1.84-18.7-5.59-37.17-16.12-11.56-6.59-14.99-8.47-19.32-10.57-9.62-4.66-17.13-7.11-25.04-8.15-1.42-.23-8.15-.48-8.29-.34z"/><path d="m281.49 258.81c-7.18.42-15.42 2.5-24.78 6.26-5.65 2.27-13.36 5.98-22.09 10.65-9.62 5.13-16.61 8.68-21.05 10.69-9.43 4.25-17.95 6.96-26.16 8.33-9.12 1.51-16.44 4-26.25 8.91-5 2.5-8.91 4.7-18.63 10.49-14.97 8.91-21.81 12.35-30.37 15.27-7.78 2.65-12.92 3.47-18.02 2.87-8.01-.95-14.8-4.53-22.82-12.03-4.29-4.01-7.74-7.99-17.32-19.96-7.75-9.69-10.33-12.76-13.59-16.18-6.76-7.1-12.43-11.44-18.52-14.15-2.27-1.01-5.15-1.98-5.49-1.84-.64.25-.14.58 1.84 1.22 1.15.37 3.22 1.24 4.63 1.93 5.42 2.69 9.96 6.19 15.79 12.15 4.48 4.58 6.39 6.84 16.95 20.08 7.49 9.39 11.87 14.33 15.94 17.99 7.53 6.77 13.15 9.84 20.74 11.32 2.16.42 7.81.42 10.14 0 6.92-1.26 14.71-4.06 23.22-8.33 5.68-2.85 8.37-4.37 20.27-11.45 18.9-11.24 28.34-15.23 41.41-17.51 8.41-1.46 15.37-3.59 24.12-7.36 6.23-2.69 10.33-4.75 26.91-13.56 16.44-8.73 29.58-13.56 40.37-14.81 1.74-.2 9.41-.13 11.18.11 7.38.99 14.73 3.2 23.55 7.07 2.72 1.19 11.61 5.56 15.44 7.59 5.63 2.98 16.43 8.38 19.49 9.75 8.14 3.64 14.88 5.86 21.47 7.07 2.37.44 2.87.41 2.67-.12-.05-.14-.97-.37-2.44-.62-4.6-.78-10.12-2.38-15.44-4.48-5.57-2.2-13.01-5.78-24.45-11.76-19.23-10.06-29.69-13.99-40.55-15.23-2.25-.29-6.47-.46-8.16-.36z"/><path d="m277.42 273.69c-6.46.79-14.62 3.07-22.79 6.37-5.82 2.35-9.72 4.18-20.88 9.8-14.97 7.54-19.65 9.71-26.51 12.3-7.23 2.73-12.87 4.18-20.97 5.4-10.34 1.56-20.93 5.34-35.26 12.57-1.71.87-6.98 3.53-11.7 5.91-9.08 4.58-11.51 5.73-16.58 7.78-7.68 3.12-16.15 5.47-21.28 5.92-8.39.74-16.25-1.54-24.21-6.99-5.82-3.99-11.33-9.25-20.08-19.14-6.97-7.88-8.71-9.82-11.63-12.93-3.06-3.26-7.08-7.11-9.76-9.34-6-4.99-12.13-8.44-17.99-10.13-2.11-.61-2.13-.61-2.24-.2-.07.27.16.38 1.58.78 6.81 1.93 13.13 5.65 20.2 11.89 2.79 2.46 9.04 8.88 12.83 13.16 8.12 9.18 10.26 11.57 12.95 14.42 11.4 12.08 20.91 17.87 31.4 19.13 2.84.34 6.77.22 9.79-.29 4.87-.83 11.96-2.91 17.74-5.21 6.21-2.47 9.69-4.14 28-13.44 6.27-3.19 8.74-4.36 13-6.18 8.59-3.67 16.2-5.94 23.65-7.05 6.36-.95 10.71-1.98 16.72-3.98 8.1-2.69 13.01-4.88 29.2-13 6.58-3.3 13.28-6.6 14.9-7.34 10.24-4.69 19.57-7.77 27.9-9.2 1.94-.33 5.37-.57 8.23-.57 10.37.01 20.48 2.61 35.78 9.19 1.43.62 6.38 2.85 11 4.98 13.2 6.06 18.57 8.29 25.21 10.46 5.11 1.67 11.46 3.17 14.9 3.52 1.06.11 1.13.09 1.13-.24 0-.31-.17-.38-1.52-.56-2.78-.38-7.4-1.38-10.73-2.33-6.88-1.97-13.67-4.65-25.26-9.97-12.96-5.95-14.31-6.55-19.32-8.57-8.65-3.49-15.4-5.48-22.01-6.48-1.28-.19-2.65-.4-3.03-.46-1.49-.24-10.35-.22-12.36.02z"/><path d="m279.85 288.42c-.34.04-1.46.15-2.51.25-6.21.58-15.51 3.03-23.82 6.29-5.23 2.05-9.08 3.78-19.06 8.57-9.41 4.52-12.82 6.12-16.2 7.61-10.81 4.77-20.45 7.72-29.11 8.88-15.04 2.03-22.21 4.26-45.38 14.11-3.52 1.5-7.63 3.22-9.15 3.84-13.65 5.57-25.23 8.69-33.49 9.03-9.93.41-19.23-3.04-29.28-10.85-4.47-3.47-7.69-6.45-17.85-16.48-4.19-4.14-8.54-8.36-9.65-9.38-9.95-9.04-18.75-14.26-27.6-16.36-.95-.23-1.74-.39-1.76-.38-.01.02-.05.18-.09.36-.05.28.25.4 2.19.89 6.45 1.64 12.6 4.76 19.23 9.76 4.55 3.43 7.92 6.5 17.59 16.06 8.63 8.53 12.47 12.11 16.17 15.08 4.4 3.53 7.67 5.66 11.82 7.71 5.91 2.91 10.48 4.09 16.67 4.27 3.85.12 5.84-.06 10.36-.91 9.58-1.8 17.73-4.57 34.95-11.87 14.92-6.33 20.13-8.34 26.91-10.35 6.04-1.8 10.38-2.72 16.81-3.57 9.52-1.26 16.79-3.28 27.29-7.61 4.36-1.79 7.92-3.43 18.63-8.57 13.88-6.66 18.52-8.68 25.38-11.04 9.5-3.26 16.67-4.62 24.41-4.62 7.35 0 13.77.97 22.2 3.34 6.13 1.73 12.08 3.85 24.24 8.66 19.48 7.7 28.19 10.34 38.4 11.67 2.63.34 2.69.34 2.69-.07 0-.26-.15-.37-.56-.42-.31-.04-1.78-.25-3.25-.45-6.13-.84-11.9-2.3-19.93-5.01-4.58-1.55-7.57-2.67-16.98-6.38-13.62-5.36-19.91-7.57-26.54-9.32-3.6-.95-8.71-1.97-11.31-2.26-.48-.05-1.56-.17-2.43-.27-1.66-.15-8.95-.33-9.99-.21z"/><path d="m282.08 303.46c-.04.03-1.2.11-2.58.17-1.39.06-2.75.15-3.03.19-.29.04-1.46.21-2.6.36-7.73 1.06-16.79 3.76-27.2 8.1-3.54 1.48-5.51 2.35-15.14 6.74-8.26 3.76-12.23 5.48-16.48 7.16-10.17 4-18.39 6.11-27.38 7.02-4 .41-5.18.57-8.92 1.23-8.8 1.55-15.21 3.36-33.09 9.32-20.86 6.96-26.95 8.53-39.42 10.15-1.46.19-6.84.24-8.49.08-5.93-.58-10.81-2.02-16.72-4.92-7.26-3.56-12.2-7.16-25.38-18.46-8.73-7.49-12.11-10.2-16.55-13.29-6.08-4.24-12.33-7.4-18.11-9.16-2.11-.65-6.59-1.63-6.81-1.5-.07.04-.12.22-.12.41 0 .25.12.34.45.34 1.41 0 7.35 1.69 10.66 3.04 8.56 3.48 15.85 8.54 30.22 20.96 9.74 8.42 15.21 12.62 20.71 15.9 6.54 3.9 12.53 6.14 19.23 7.18 2.77.43 9.56.43 12.74 0 11.06-1.5 18.11-3.39 40.46-10.87 18.94-6.33 27.38-8.41 38.99-9.61 13.91-1.43 24.41-4.94 48.95-16.37 17.12-7.97 29.09-11.83 40.55-13.07 3.35-.36 11.57-.25 15.42.22 10.02 1.2 17.1 3.03 37.25 9.58 19.16 6.24 27.09 8.2 37.43 9.25 3.05.31 2.86.32 2.86-.16 0-.36-.09-.4-.83-.43-2.4-.08-8.42-.92-12.16-1.69-7.57-1.56-14.02-3.41-29.54-8.5-17.38-5.69-26.55-7.94-36.56-8.97-2.26-.25-8.66-.53-8.81-.4z"/><path d="m278.81 318.66c-9.53.6-19.58 3.09-31.71 7.84-3.74 1.47-5.91 2.37-13.6 5.7-10.9 4.72-16.52 6.98-21.83 8.79-7.09 2.42-14.09 4.06-20.27 4.75-2.18.24-2.93.31-5.89.55-.76.06-1.58.13-1.82.16s-.94.11-1.56.17c-.62.07-1.32.15-1.56.18s-1.13.15-1.99.26c-6.74.84-15.75 2.72-29.61 6.17-21.07 5.25-29.36 6.87-39.7 7.77-13.13 1.15-23.88-1.68-37.43-9.84-2.66-1.6-8.2-5.38-13.08-8.93-14.19-10.3-18.31-12.99-25.21-16.45-6.29-3.15-13.38-5.43-19.28-6.2-.83-.11-.9-.09-.9.25 0 .39-.09.37 2.6.8 2.48.4 6.58 1.47 9.18 2.39 8.16 2.89 15.54 7.1 27.12 15.46 15.77 11.39 18.82 13.41 25.45 16.81 7.43 3.81 14.12 5.82 21.94 6.58 3.14.3 10.73-.04 15.11-.69.32-.05 1.42-.2 2.48-.35 7.71-1.09 14.92-2.63 30.48-6.51 14.83-3.7 23.96-5.63 30.6-6.48.43-.06 1.32-.17 1.99-.26 1.32-.17 3.79-.41 7.19-.69 5.91-.49 9.98-1.16 15.27-2.48 7.93-1.99 14.9-4.55 29.09-10.68 19.06-8.24 26.62-10.93 36.04-12.82 6.03-1.21 9.77-1.57 16.29-1.57 7.49 0 14.47.79 23.56 2.68 5.52 1.15 8.44 1.86 21.76 5.31 19.63 5.08 28.3 6.67 39.06 7.15.33.01.45-.07.49-.37.05-.37 0-.39-1.21-.42-.69-.01-1.38-.04-1.52-.05s-1.04-.09-1.99-.16c-.95-.08-1.97-.17-2.25-.2-.29-.03-.9-.1-1.39-.16-8.48-.97-15.32-2.46-37.6-8.23-13.53-3.5-23.7-5.46-31.02-5.99-.87-.06-1.75-.15-1.99-.19-.94-.15-9.07-.19-11.29-.05z"/><path d="m12.67 332.62c0 .3.23.37 2.29.64 11.48 1.51 22.07 5.84 38.07 15.58 11.96 7.28 16.08 9.66 20.98 12.12 8.82 4.42 16.34 6.88 24.6 8.04 2.33.33 11.02.48 14.29.25 3.53-.25 9.92-.86 12.74-1.22 6.44-.82 11.19-1.54 24.34-3.71 18.75-3.1 27.67-4.22 37.08-4.67 2.06-.1 3.75-.22 4.94-.36 9.83-1.13 18.11-3.32 30.67-8.14 1.67-.64 6.53-2.59 10.83-4.34 12.67-5.16 18.54-7.31 24.86-9.11 5.77-1.64 11.79-2.84 15.94-3.19.71-.06 1.4-.14 1.52-.18.44-.14 5.42-.33 8.87-.34 3.14 0 7.97.17 9.44.33.29.03 1.14.11 1.91.17 1.3.1 3.68.36 4.85.53.29.04.9.12 1.39.18 2.51.32 8.2 1.21 11.18 1.74 3.38.61 5.11.94 16.55 3.19 17.22 3.39 25.8 4.6 35.23 4.96 2.96.11 2.98.11 2.98-.26 0-.34-.1-.37-1.08-.39-.59-.01-1.2-.04-1.34-.06s-1.51-.1-3.01-.16c-1.51-.07-2.8-.14-2.86-.17s-.85-.11-1.77-.17c-.92-.07-1.85-.15-2.08-.18s-.85-.11-1.37-.17c-6.12-.68-14.61-2.14-28.24-4.85-13.81-2.75-20.18-3.82-27.9-4.69-.33-.04-1.58-.15-2.77-.25-1.2-.1-2.55-.22-3.03-.28-2.73-.3-14.21-.2-17.34.16-.46.05-1.28.14-1.8.2-9.94 1.07-20.34 4.14-36.99 10.92-16.32 6.64-20.99 8.4-27.2 10.22-8.55 2.51-14.19 3.47-23.3 3.99-7.63.43-12.67 1-25.47 2.87-.62.09-5.15.83-10.05 1.64-12.84 2.12-12.75 2.11-16.63 2.68-7 1.02-12.82 1.73-16.46 2.01-.81.06-1.64.14-1.85.17-1.09.17-6.34.35-9.84.33-7.06-.02-12.48-.95-19.68-3.37-8.19-2.75-14.26-5.9-31.17-16.16-11.99-7.28-18.88-10.76-26.53-13.38-4.66-1.6-10.78-3.01-14.38-3.32-1.33-.13-1.41-.12-1.41.2z"/><path d="m12.15 345.08c0 .38.08.42.82.43.45.01.94.04 1.08.06s.76.1 1.39.16c.62.07 2.03.27 3.12.45 6.94 1.14 13.32 3.15 20.79 6.55 4.56 2.07 8.77 4.29 19.23 10.13 6.34 3.54 8.4 4.62 11.99 6.26 12.65 5.82 23.7 8.16 38.43 8.16 3.26 0 12.18-.23 12.86-.34.22-.03 1.49-.11 2.82-.17s2.85-.15 3.38-.19 2.11-.16 3.55-.26c3.92-.28 16.87-1.39 19.06-1.63.96-.11 3.79-.36 12.48-1.12 5.74-.5 6.65-.58 9.53-.79.76-.05 1.85-.13 2.43-.17.57-.04 1.94-.12 3.03-.17 1.09-.06 2.38-.14 2.86-.17.48-.04 2.27-.11 3.99-.17 9.7-.31 15.65-1.19 24.57-3.63 6.04-1.66 11.42-3.54 23.86-8.33 9.15-3.52 11.2-4.28 15.77-5.83 9.58-3.24 18.19-5.19 25.56-5.79.76-.06 1.56-.14 1.77-.17 2.57-.4 16.65-.39 20.58.01.38.04 1.28.12 1.99.17 1.73.14 6.67.59 7.54.7.38.05 1.7.2 2.95.35s2.48.3 2.77.34 1.21.15 2.08.26c.86.1 6.43.88 12.39 1.73 10.95 1.56 14.04 1.98 15.77 2.17.52.06 1.15.14 1.39.18s2.03.23 3.99.42 3.9.38 4.33.42 1.47.13 2.34.19 1.87.14 2.25.18c.93.09 7.64.33 9.27.33 1.21 0 1.3-.03 1.35-.39l.05-.39-2.91-.01c-1.59 0-3.15-.04-3.43-.07-.29-.03-1.61-.11-2.95-.18-2.47-.12-2.82-.14-6.24-.46-1.06-.1-2.37-.21-2.95-.27-4.08-.36-8.85-.98-22.53-2.93-11.47-1.63-17.39-2.41-21.05-2.76-.62-.06-1.4-.14-1.73-.18s-1.66-.16-2.95-.26c-1.28-.1-2.65-.22-3.03-.26-3.78-.39-16.17-.45-20.62-.11-8.6.66-15.84 2.1-25.04 4.99-4.28 1.34-9.1 3.09-18.19 6.59-17.6 6.78-24.63 9.02-33.44 10.69-5.09.96-8.46 1.28-17.07 1.58-1.52.05-3.12.13-3.55.17s-1.72.12-2.86.18-2.35.14-2.69.17c-.33.03-1.35.11-2.25.16-.9.06-2 .14-2.43.17-.43.04-1.32.11-1.99.16-1.37.1-6.98.58-8.32.71-.47.04-1.77.16-2.86.26s-2.35.22-2.77.26c-.43.04-1.72.16-2.86.26s-2.27.21-2.51.25-1.13.12-1.99.17c-.87.06-1.75.13-1.99.17s-1.06.12-1.82.17c-.76.06-2.6.21-4.07.35-1.47.13-3.31.29-4.07.34s-1.78.13-2.25.18c-.48.05-1.68.13-2.69.18-1 .05-2.05.13-2.34.16-.29.04-1.68.12-3.12.19s-2.83.15-3.12.18c-1.18.14-18.14.2-19.49.06-.81-.08-2.09-.19-2.86-.25-7.02-.56-15.8-2.72-23.13-5.69-5.03-2.04-8.56-3.8-16.2-8.07-11.31-6.32-16.83-9.17-22.02-11.39-7.75-3.3-15.98-5.48-22.91-6.06-.64-.05-1.37-.12-1.64-.16-.41.02-.48.08-.48.42z"/><path d="m11.66 356.99c.05.34.19.39 1.35.49 8.43.68 16.5 2.63 25.38 6.13 5.27 2.07 9.29 3.9 20.34 9.26 8.2 3.97 11.76 5.5 17.15 7.36 7.87 2.7 16.25 4.43 24.54 5.04.76.06 1.7.15 2.08.21 1.08.16 29.56.2 35.17.05 5.77-.16 10.8-.31 14.03-.44 2.27-.09 5.02-.18 9.96-.34 1.47-.05 3.62-.13 4.76-.17 1.14-.05 3.48-.13 5.2-.18s4.02-.13 5.11-.16c1.1-.04 4.09-.11 6.67-.17 4.49-.1 5.5-.14 8.75-.36 3.6-.24 9.65-1.2 14.19-2.24 6.25-1.43 13.86-3.85 25.51-8.12 14.75-5.4 19.31-6.92 26.16-8.68 6.93-1.78 12.87-2.7 20.6-3.2 4.66-.3 11.68-.35 18.54-.13 2.13.07 3.92.15 3.98.19.05.03 1.22.11 2.61.17s2.67.14 2.86.18 1.16.12 2.17.17c1 .06 2.05.14 2.34.17.28.04 1.11.11 1.82.17 1.09.08 7.75.72 10.83 1.04.48.05 1.65.17 2.6.27 1.82.19 11.25 1.13 12.91 1.29 1.84.17 9.29.77 10.83.86.86.05 2.34.13 3.29.18s2.4.12 3.21.17c3.29.18 9.35.29 9.86.18.38-.09.54-.22.54-.45 0-.31-.18-.33-4.2-.36-2.3-.01-4.36-.04-4.55-.06s-1.78-.09-3.55-.16-3.36-.15-3.55-.19-1.25-.12-2.34-.17c-1.09-.06-2.38-.14-2.86-.18s-2.65-.23-4.85-.42-4.3-.38-4.68-.42c-1.22-.14-4.8-.49-7.19-.72-.53-.05-1.61-.16-2.43-.25-1.62-.18-7.73-.79-9.53-.95-.62-.06-1.44-.13-1.82-.17-1.05-.11-2.48-.24-3.81-.35-.68-.06-1.6-.14-2.08-.18-1.84-.17-5.46-.42-7.54-.52-1.2-.06-2.52-.14-2.95-.18-2.29-.21-13.81-.27-17.59-.08-2.29.11-4.39.24-4.68.27-.29.04-1.14.12-1.91.17-6.18.47-13.69 1.9-21.02 4.01-4.64 1.33-10.31 3.26-20.83 7.08-5.58 2.02-11.81 4.23-13.86 4.91-8.56 2.83-15.88 4.61-22.44 5.48-1.76.23-2.48.31-5.11.54-.52.05-2.51.12-4.42.17-8.52.22-15.06.42-17.33.51-.95.04-3.26.12-5.11.18s-4.08.14-4.94.18-3.08.12-4.94.17c-1.85.05-3.97.13-4.68.16-.72.04-3.55.12-6.32.18s-5.45.13-5.98.16c-2.69.14-30.77.21-33.01.08-2.91-.17-5.03-.32-6.06-.44-.39-.04-1.07-.12-1.56-.17-5.7-.62-12.33-1.94-17.33-3.46-6.89-2.1-11.83-4.14-22.01-9.1-4.75-2.31-6.87-3.33-9.88-4.71-13.81-6.38-24.33-9.43-35.31-10.26-1.11-.07-1.14-.06-1.09.31z"/><path d="m11.39 368.29c-.06.17-.09.32-.07.34.04.04.95.15 3.08.35 3.84.36 9.98 1.44 14.23 2.51 7.92 1.99 15.58 4.61 30.56 10.48 17.57 6.88 27.36 9.89 37.69 11.58 6 .98 9.77 1.2 23.91 1.41 3.67.05 7.53.13 8.58.17 8.21.31 43.11.45 54.67.22 7.05-.14 9.53-.32 14.47-1.03 8.85-1.27 17.26-3.64 35-9.85 9.91-3.47 14.28-4.91 19.15-6.3 9.22-2.64 16.48-3.93 25.64-4.54.9-.06 1.96-.15 2.34-.19 1.24-.15 20.01-.19 22.7-.05 1.43.08 3.88.19 5.46.25s3.05.14 3.29.17 1.49.12 2.77.18c1.28.07 2.46.14 2.6.17s1.16.1 2.25.16 2.27.14 2.6.17 1.42.11 2.43.17 2.09.14 2.43.18c.53.06 5.13.41 9.27.7.76.05 2.32.17 3.47.25 1.14.09 3.01.21 4.16.27 1.14.06 2.28.14 2.52.16.24.03 1.8.11 3.47.17 1.66.07 3.3.15 3.63.18s3.39.12 6.8.18l6.19.12v-.37c0-.36-.06-.37-2.64-.39-1.46-.01-3.15-.04-3.77-.07s-2.76-.1-4.76-.16c-2.01-.06-4.14-.14-4.76-.18s-1.87-.11-2.77-.16c-3.53-.2-7.58-.45-8.49-.53-.53-.05-1.61-.12-2.43-.17s-1.9-.12-2.43-.16-1.65-.12-2.51-.18c-.87-.06-1.75-.13-1.99-.16s-1.28-.11-2.34-.17-2.18-.14-2.51-.18-2.29-.19-4.33-.33c-3.53-.25-5.08-.35-8.23-.54-.77-.05-2.04-.12-2.86-.17-7.81-.45-13.08-.58-19.93-.49-3.38.04-6.42.1-6.76.14-.33.03-1.66.11-2.95.17-1.28.06-2.65.14-3.03.18s-1.16.11-1.73.16c-4.92.43-8.07.87-12.56 1.78-7.7 1.55-13.93 3.41-28.68 8.54-15.09 5.26-20.77 7.04-27.2 8.52-6.67 1.54-12.42 2.34-17.99 2.49-1.73.05-4.07.13-5.18.18-2.03.09-38.53.1-39.99.01-.43-.03-4.83-.11-9.79-.18s-9.64-.15-10.4-.18c-.77-.03-4.51-.1-8.33-.16-11-.18-15.01-.54-22.33-2.02-9.24-1.86-16.69-4.29-35.26-11.51-20.03-7.78-29.78-10.67-40.63-12.04-.87-.11-1.79-.23-2.08-.27-.28-.04-1.2-.12-2.01-.18-1.37-.09-1.54-.07-1.64.2z"/><path d="m11.28 378.92c0 .4.21.47 1.82.62 9.94.9 21.54 4.01 38.81 10.41 3.53 1.31 8.51 3.15 11.09 4.1 20.62 7.63 33.15 10.43 47.13 10.53 2.2.01 4.3.05 4.68.09.38.03 3.66.12 7.28.18 3.62.07 6.82.14 7.1.17.29.03 2.58.11 5.11.18s4.9.15 5.28.17 2.63.1 4.99.16c2.36.07 4.63.14 5.02.17 4.42.32 30.96.47 37.98.21 7.27-.26 13.62-1.22 22.09-3.34 6.35-1.59 10.86-3.01 26.68-8.38 9.79-3.33 14.48-4.79 19.84-6.17 5.7-1.47 11.48-2.54 16.29-3.02 1.06-.11 2.08-.22 2.3-.26s1.16-.12 2.08-.18 1.86-.14 2.07-.17c.22-.03 1.61-.11 3.12-.16 1.51-.06 3.04-.14 3.42-.18.88-.09 18.05-.11 18.63-.01.24.04 2.11.12 4.16.18 2.04.06 4 .14 4.33.17s1.66.11 2.95.17c1.28.06 2.77.14 3.29.18.53.04 1.65.11 2.51.16 3.48.21 8.78.57 10.22.7.48.04 1.84.13 3.03.19 1.2.06 2.28.14 2.43.16.14.03 1.26.1 2.51.16s2.48.14 2.77.18 1.65.12 3.03.18c1.39.06 2.68.14 2.88.16.2.03 1.72.11 3.38.17s3.36.15 3.79.18 3.14.12 6.01.18l5.23.12-.03-.37c-.02-.35-.13-.37-1.59-.4-3.03-.04-10.78-.3-12.67-.41-.76-.05-2.95-.16-4.85-.26-3.34-.17-4.6-.25-7.02-.43-.62-.05-2.37-.16-3.9-.26-4.37-.27-5.48-.35-6.5-.43-1.07-.08-2.79-.2-5.11-.36-.87-.06-2.02-.13-2.6-.17s-1.89-.12-2.95-.17c-1.06-.06-2.29-.13-2.77-.17s-2.03-.12-3.47-.18-2.83-.14-3.12-.17c-1.29-.14-10.55-.34-15.59-.34-5.08 0-11.98.17-13.69.35-.39.04-1.39.12-2.25.17-13.22.87-22.84 3.07-42.09 9.65-18.64 6.37-24.58 8.16-32.33 9.76-3.69.76-7.7 1.39-10.48 1.65-1.14.11-2.37.22-2.72.26-3.86.44-32.31.43-39.54-.01-.58-.04-2.77-.11-4.87-.17s-4.67-.14-5.72-.18c-2.47-.1-6.1-.22-10.22-.34-1.82-.06-3.99-.13-4.85-.17s-4.59-.11-8.32-.17c-13.79-.2-16.76-.42-24.08-1.76-9.59-1.75-17.47-4.18-35.87-11.04-18.57-6.92-24.14-8.67-35.26-11.04-1.23-.26-5.69-.99-6.84-1.11-.58-.06-1.58-.18-2.25-.27-1.69-.2-1.78-.2-1.78.18z"/><path d="m10.93 389.49c0 .21.06.36.14.36.58 0 6.15.77 8.18 1.14 10.13 1.81 17.71 4.05 36.82 10.91 21.24 7.62 29.44 9.93 41.15 11.6 4.73.68 7.38.81 21.23 1.06 3.24.06 6.36.14 6.93.17s2.67.11 4.68.16c2.01.06 4.03.13 4.51.17s2.34.12 4.16.17c1.82.06 3.68.13 4.16.17s2.43.12 4.33.18c1.91.06 3.58.14 3.73.17.14.03 2.32.11 4.85.17s4.86.15 5.2.19c1.19.15 21.81.2 25.47.06 7.9-.29 14.5-1.25 22.44-3.27 6.58-1.67 12.58-3.6 27.64-8.9 17.1-6.02 26.98-8.5 37.34-9.4.68-.06 1.52-.14 1.91-.18.72-.08 2.22-.18 6.15-.43 2.34-.15 22.45-.09 23.91.07.43.05 2.46.17 4.51.27 2.04.1 4.23.22 4.85.27 1.06.08 4.44.32 7.54.53.77.05 2.36.17 3.55.26 1.2.09 2.71.21 3.38.26.68.05 1.56.13 1.99.17s1.63.12 2.69.18 2.02.13 2.17.16c.14.03 1.23.11 2.43.17 1.2.07 2.28.14 2.43.17.14.03 1.26.11 2.51.17 1.25.07 2.45.15 2.69.18s1.52.11 2.86.16c1.33.06 2.89.14 3.47.17.57.04 2.6.11 4.51.16s4.64.14 6.08.2c2.88.12 3.36.05 3.36-.47 0-.31-.16-.33-2.91-.33-3.64-.01-13.2-.36-16.32-.6-.52-.04-1.73-.12-2.69-.18-1.72-.1-10.29-.7-12.3-.86-.57-.05-1.66-.13-2.43-.19s-1.7-.14-2.08-.17c-.38-.04-1.47-.12-2.43-.17-.95-.06-1.97-.14-2.25-.17-.29-.04-1.49-.12-2.69-.18s-2.2-.14-2.25-.16c-.05-.03-1.21-.11-2.6-.17-1.39-.07-2.68-.14-2.88-.17-.21-.03-1.52-.11-2.95-.17-1.42-.07-2.75-.15-2.97-.18-.76-.12-10.21-.34-14.5-.34-4.31 0-11.34.19-13 .35-.48.05-2.39.2-4.25.35-12.26.96-21.1 3.21-43.14 10.95-22.58 7.93-31.45 10.05-44.88 10.7-1.96.1-23.03.1-24.17 0-.38-.03-2.79-.11-5.37-.18s-4.91-.14-5.2-.17-2.2-.11-4.25-.17c-2.04-.07-4.04-.15-4.42-.18s-2.06-.11-3.73-.16c-1.66-.06-3.7-.14-4.51-.18-1.6-.08-4.56-.19-8.92-.34-1.52-.05-3.79-.13-5.02-.17-1.24-.04-5.02-.12-8.4-.17-5.94-.09-9.56-.21-11-.36-.38-.04-1.16-.12-1.73-.17-3.83-.36-10.14-1.47-14.9-2.6-7.86-1.88-14.05-3.87-32.4-10.44-17.97-6.43-28.38-9.28-38.81-10.61-3.39-.39-3.6-.39-3.6.01z"/><path d="m10.42 400.15c-.08.21-.13.38-.12.39s.62.08 1.33.14c2.32.2 8.09 1.11 11.49 1.81 8.65 1.78 15.09 3.65 33.74 9.81 16.62 5.49 22.62 7.21 31.38 9 3.9.8 5.48 1.04 10.03 1.56 5.67.64 7.14.72 17.71.89 3.29.05 6.26.12 6.58.16.32.03 1.98.12 3.7.18 1.72.07 3.35.14 3.64.17s1.68.1 3.12.16 3.06.14 3.64.18c2.6.17 4.14.26 6.15.35 1.2.06 2.48.13 2.86.17s1.82.12 3.21.17c1.39.06 2.82.14 3.21.17.38.04 1.98.12 3.55.18 1.58.06 3.12.14 3.43.17 2.95.31 24.76.46 29.92.21 9.22-.46 18.97-2.55 31.1-6.66 1.86-.63 6.46-2.27 10.22-3.65s8.37-3.05 10.22-3.71c14.61-5.23 24.22-7.52 35.17-8.37.71-.06 1.61-.13 1.99-.17 3.66-.38 18.25-.49 22.87-.17.38.03 1.91.1 3.38.16s2.88.14 3.12.17 1.37.11 2.51.17 2.27.14 2.51.18 1.21.12 2.17.17c.95.06 2.01.14 2.34.17.33.04 1.66.16 2.95.26 1.28.1 2.69.23 3.12.27.94.1 7.9.72 9.62.86.67.05 2.43.21 3.9.35s3.19.29 3.81.34 1.51.12 1.99.16 1.4.12 2.08.17c2.03.15 3.94.29 4.85.36.48.04 1.84.12 3.03.17 1.2.06 2.52.14 2.95.17.43.04 2.3.12 4.16.17 1.85.06 4.45.14 5.76.18l2.38.08v-.43-.43l-3.25-.03c-1.78-.01-3.48-.04-3.77-.06s-1.96-.09-3.73-.16-3.44-.15-3.73-.18c-.28-.03-1.42-.1-2.51-.16s-2.46-.15-3.03-.19c-1.4-.1-5.32-.41-6.5-.52-.52-.05-1.89-.16-3.03-.26-1.15-.1-4.64-.41-7.8-.69-3.15-.29-6.22-.56-6.84-.62-.62-.05-1.4-.13-1.73-.16-.34-.04-1.3-.12-2.17-.17s-1.75-.13-1.99-.17-1.21-.12-2.17-.18c-.95-.06-1.93-.14-2.17-.17s-1.28-.11-2.34-.16-2.18-.14-2.51-.18c-.65-.08-3.12-.22-7.76-.43-3.83-.18-16.03-.16-19.53.02-8.59.45-15.72 1.49-23.04 3.35-6.76 1.72-11.87 3.4-24.69 8.1-13.58 4.98-18.67 6.67-25.04 8.29-6.13 1.56-10.92 2.39-16.63 2.87-4.89.41-25.84.4-30.67-.01-.38-.03-2.01-.11-3.64-.17s-3.37-.14-3.9-.18c-.52-.04-1.85-.11-2.95-.16-1.09-.05-2.62-.13-3.38-.18s-3.57-.2-6.24-.35c-2.67-.14-5.48-.3-6.24-.34-4.18-.24-7.6-.4-11-.52-1.47-.05-3.47-.13-4.42-.18s-4.19-.13-7.19-.18c-7.9-.13-10.25-.29-15.77-1.04-10.61-1.45-19.09-3.72-40.81-10.89-11.71-3.87-15.1-4.94-19.75-6.24-7-1.96-14.55-3.6-19.67-4.27-5.26-.68-5.02-.67-5.18-.27z"/><path d="m9.37 410.97c0 .28.14999.37.74.44.4.05 2.11.25 3.77.45 10.24 1.22 20.84 3.72 39.59 9.33 20.43 6.11 29.28 8.31 39.54 9.8 6.36.93 10 1.19 19.54 1.4 2.48.06 4.89.13 5.37.17s1.84.11 3.03.17c2.36.11 4.42.22 6.32.35.67.05 2.5.16 4.07.26 1.58.1 3.29.21 3.81.25s1.54.13 2.25.18c.71.06 1.73.14 2.25.18.53.04 1.65.12 2.51.17.87.05 1.91.13 2.34.16.43.04 1.32.11 1.99.16 3.62.26 4.22.3 4.94.37.43.04 2.81.19 5.28.34 2.48.15 4.97.3 5.54.35 4.71.35 23.77.5 28.04.22 7.47-.5 15.35-2.17 24.81-5.26 4.65-1.52 8.77-3.03 17.85-6.55 9.22-3.57 11.56-4.44 16.2-5.98 9.24-3.07 16.74-4.73 24.6-5.46.62-.06 1.36-.13 1.65-.17 1.79-.23 6.17-.35 12.82-.35 6.6 0 13.29.17 13.6.35.05.03 1.09.1 2.34.16s2.52.15 2.86.19c.33.04 2.01.2 3.73.35s3.39.3 3.73.34 1.11.12 1.73.18c1.94.18 6.03.63 8.75.96 2.01.24 2.46.29 7.71.86 2.62.28 5.08.55 5.46.6.38.04 1.51.16 2.51.26s2.13.22 2.51.26c1.28.15 6.22.59 7.88.71.9.06 1.88.14 2.17.16.29.03 1.49.11 2.69.17 1.2.07 2.48.14 2.86.17s2.59.11 4.89.18l4.2.13v-.37c0-.34-.1-.37-1.08-.39-.59-.01-1.44-.04-1.86-.07-.43-.03-2.34-.11-4.25-.17-1.91-.07-3.74-.14-4.07-.17s-1.42-.1-2.43-.16c-1-.06-2.21-.15-2.69-.19s-2.24-.2-3.9-.35c-3.34-.29-10.52-1.01-12.82-1.28-.81-.09-1.82-.21-2.25-.26-4.66-.51-8.85-.99-9.27-1.05-.29-.04-1.37-.16-2.43-.26s-2.18-.22-2.51-.26c-1.59-.21-5.94-.64-8.84-.87-1.77-.14-3.56-.3-3.99-.34s-1.72-.13-2.86-.19-2.31-.14-2.6-.17c-1.67-.18-8.04-.34-12.91-.32-5.32.02-9.44.21-13.17.6-.9.09-2.04.21-2.51.26-1.84.18-5.91.82-8.23 1.31-8.27 1.73-15.23 4.01-31.81 10.43-17.71 6.86-25.76 9.27-35.59 10.68-4.9.7-6.83.79-17.07.79-8.33 0-15.67-.27-23.74-.86-.67-.05-2.34-.17-3.73-.26-1.39-.1-3.06-.21-3.73-.26s-1.87-.13-2.69-.18c-.81-.05-1.78-.13-2.17-.16-.76-.08-5.13-.39-9.58-.69-.73-.05-1.73-.13-2.2-.17-.48-.04-1.72-.12-2.77-.18s-2.29-.13-2.77-.17-1.84-.12-3.03-.17c-1.2-.06-2.71-.14-3.38-.18-1.45-.09-5.63-.22-11.18-.36-2.24-.06-4.31-.13-4.59-.16-.29-.03-1.21-.11-2.08-.16s-1.75-.13-1.99-.17-.97-.12-1.65-.17c-.66-.06-2.27-.26-3.55-.44-10.14-1.47-18.83-3.56-35.78-8.6-17.28-5.13-22.98-6.69-30.67-8.37-4.44-.97-9.94-1.91-13.69-2.35-.49-.06-1.06-.13-1.3-.17s-1.03-.12-1.78-.18c-1.20001-.15-1.28-.13-1.28.2z"/><path d="m279.68 419.53c-.05.04-.99.13-2.08.19-12.14.65-22.85 3.41-39.42 10.13-2.1.85-6.22 2.54-9.18 3.76-15.68 6.47-24.55 9.21-33.96 10.49-.76.1-1.62.22-1.91.26s-1.3.12-2.25.18-1.93.14-2.17.18c-.54.09-15.49.08-16.2-.01-.29-.04-1.89-.11-3.55-.18-1.66-.06-3.27-.14-3.55-.18-.29-.04-1.33-.12-2.34-.17-2.24-.13-7.78-.55-10.22-.78-1-.09-2.28-.21-2.86-.27-.57-.05-1.39-.13-1.82-.17-1.28-.13-7.97-.75-9.1-.85-.57-.05-1.39-.13-1.82-.17-1.25-.13-2.37-.24-4.51-.43-1.09-.1-2.38-.22-2.86-.26-1.35-.13-9.67-.76-11.61-.87-.95-.06-2.32-.14-3.03-.18-.72-.04-2.46-.12-3.9-.16-1.43-.05-3.85-.13-5.37-.18-9.51-.33-19.96-1.85-33.27-4.84-2.66-.6-10.5-2.55-24.28-6.05-16.1-4.09-26.25-6.06-36.72-7.12-3.32998-.34-3.54998-.33-3.54998.09 0 .21.12.35.3.36.17 0 .62.04 1 .09.38.04 1.90998.2 3.37998.35 9.02.91 19.49 2.94 33.53 6.49 2.95.75 9.08 2.3 13.6 3.45 12.65 3.21 19.39 4.69 26.68 5.88 8.76 1.43 13.81 1.91 22.87 2.18 1.77.05 3.83.13 4.59.17s2.17.12 3.12.18c1.98.11 8.42.57 9.7.69.48.04 1.4.13 2.08.18.68.06 1.6.14 2.08.18 4.8.43 8.64.79 9.36.86.48.05 2.5.24 4.51.43s3.99.38 4.42.42 2.18.2 3.9.35 3.51.3 3.99.35c.48.04 1.52.12 2.34.18.81.06 1.78.13 2.17.17.38.04 1.7.12 2.95.18s2.42.14 2.63.17c.94.14 8.72.34 13.39.34 10.27 0 15.35-.53 23.1-2.41 7.72-1.88 14.07-4.13 29.06-10.33 22.42-9.26 30.83-11.53 46.18-12.47 2.29-.14 15.33-.08 16.46.07.29.04 1.49.13 2.67.19 1.18.07 2.31.14 2.51.17s1.06.11 1.92.17c.87.07 1.79.15 2.08.18s1.77.19 3.29.34c2.99.3 9.79 1.15 16.03 2 2.15.29 4.75.64 5.8.78s3.03.41 4.42.6c4.04.57 8.12 1.1 9.96 1.3.49.05 1.13.13 1.47.17 3.24.42 9.85 1.05 12.65 1.21 1 .06 2.05.13 2.34.17s2.17.12 4.2.19l3.68.12v-.37c0-.35-.08-.37-1.52-.4-.83-.01-1.71-.04-1.95-.06s-1.67-.09-3.18-.16-2.88-.15-3.03-.18c-.16-.03-1.17-.11-2.26-.17-1.09-.07-2.1-.14-2.25-.17s-.97-.11-1.84-.17c-.87-.07-1.71-.15-1.91-.18-.19-.03-.81-.11-1.39-.17-2.11-.21-13.79-1.67-16.72-2.08-1.66-.24-4.21-.59-5.63-.78-1.44-.2-3.64-.5-4.94-.68-1.29-.18-3.97-.53-5.98-.78s-3.91-.49-4.25-.53c-3.22-.41-10.08-1.06-12.91-1.22-1.06-.06-2.1-.15-2.34-.19-.53-.15-16.67-.32-16.78-.22z"/><path d="m279.33 427.67c-.05.04-1.06.12-2.25.18-13.24.65-23.3 3.58-44.1 12.8-6.31 2.8-11.42 4.99-14.55 6.24-10.1 4.04-18.15 6.2-26.68 7.16-3.76.43-18.79.43-22.44 0-.24-.03-1.28-.1-2.34-.17s-2.21-.15-2.6-.19-1.23-.11-1.91-.17c-1.27-.1-2.29-.2-5.54-.53-1.08-.11-1.32-.13-4.07-.43-3.1-.33-3.37-.36-4.68-.52-.71-.09-1.65-.2-2.08-.25-2.06-.24-3.95-.47-4.51-.54-.33-.04-1.98-.24-3.64-.43s-3.93-.46-5.02-.6-2.46-.3-3.03-.36-1.31-.14-1.65-.17c-1.41-.16-4.04-.43-5.98-.61-1.14-.1-2.43-.22-2.86-.26-3.02-.28-4.4-.38-9.79-.7-.77-.05-2.7-.12-4.33-.18-1.63-.05-3.57-.13-4.33-.18-2.58-.16-5.95-.41-6.84-.51-.34-.04-.99-.11-1.47-.16-3.86-.43-7.41-.91-11.09-1.5-7.79-1.25-11.52-2-33.44-6.72-16.24-3.5-27-5.29-36.56-6.07-1.25-.1-2.76998-.23-3.41998-.28-1.14-.09-1.17-.09-1.17.32s.03.42 1.42.45c.78.02 1.46.06 1.52.09.05.03.85998.11 1.77998.17.92.07 1.82.15 1.99.18s.9.11 1.61.18c2.03.18 8.82 1.1 11.7 1.58 6.04 1.01 12.98 2.38 23.22 4.59 18.4 3.97 19.96 4.29 27.9 5.68 3.73.65 9.95 1.58 12.3 1.83.57.06 1.31.14 1.65.18 1.59.18 4.23.43 5.63.52.87.06 1.91.13 2.34.17s2.1.11 3.73.17c3.79.13 6.4.25 8.14.36 3.83.25 5.57.38 7.02.51.43.04 1.28.11 1.91.17.62.05 1.47.13 1.91.18s1.16.12 1.65.17c1.43.14 10.07 1.1 12.48 1.38 1.25.15 2.6.31 3.03.36s1.4.17 2.17.27 1.66.2 1.99.24 1.23.15 1.99.25c2.04.26 5.75.67 11.09 1.21 3.83.39 4.56.46 7.71.7 1.28.1 2.79.22 3.34.26 3.89.32 10.33.48 15.72.39 3.38-.06 6.42-.14 6.76-.19.33-.05 1.66-.21 2.95-.37 3.32-.4 8.59-1.48 12.13-2.49 6.67-1.91 12.61-4.16 23.17-8.8 16.89-7.42 22.16-9.49 29.25-11.51 10.84-3.08 21.38-3.96 36.47-3.03 1 .06 2.17.15 2.6.19s1.68.16 2.77.26c5.84.54 14.83 1.79 26.6 3.7 5.25.85 13.56 2.18 16.2 2.6.91.14 2.62.38 3.81.54 1.2.15 2.32.31 2.51.35.39.08 5.96.71 7.71.86.62.06 1.36.13 1.65.17s1.3.12 2.25.19 1.77.14 1.82.16 1.62.1 3.51.17c3.41.13 3.42.13 3.42-.24 0-.31-.1-.37-.64-.38-.84 0-6.41-.31-7.71-.43-.56-.05-1.49-.13-2.1-.18-6.14-.53-14.85-1.69-24.47-3.27-3.19-.52-10.5-1.71-13.43-2.19-3.27-.53-12.45-1.85-14.99-2.16-4.09-.49-8.15-.9-10.48-1.05-.9-.06-2.04-.14-2.51-.19-1.17-.02-13.72-.21-13.82-.12z"/><path d="m277.94 435.71c-1.28.07-5.5.41-6.15.5-.29.04-1.18.15-1.99.26-7.31.93-16.37 3.66-25.9 7.81-3.63 1.58-7.68 3.44-12.82 5.89-16.96 8.07-26.12 11.38-35.69 12.88-4.88.77-6.48.87-13.34.85-3.15-.01-6.49-.06-7.45-.12-4.11-.26-6.98-.45-7.62-.53-.39-.04-1.23-.12-1.91-.18-4.95-.43-11.47-1.26-25.64-3.29-11.38-1.63-17.85-2.46-23.04-2.94-5.65-.53-7.84-.68-12.56-.87-2.67-.11-7.42-.39-8.84-.52-1.51-.14-2.6-.24-3.73-.34-5.02-.45-11.3-1.27-21.14-2.76-1.8-.27-11.66-1.93-17.07-2.86-9.88-1.71-22.03-3.59-27.38-4.24-1.2-.15-2.45-.3-2.79-.34-1.57-.2-7.1-.74-8.99-.88-4.41999-.33-6.10999-.43-7.15999-.43-1.02 0-1.16.04-1.16.33 0 .3.19.34 2.03.44 13.18999.75 22.72999 1.99 46.65999 6.08 14.64 2.5 20.58 3.44 26.77 4.23 4.38.56 4.8.61 6.32.78.52.06 1.23.14 1.56.18.64.07 5.61.53 7.36.68 1.28.11 6.76.4 10.05.54 1.33.05 2.82.14 3.29.18.48.04 2.34.2 4.16.34 4.31.35 11.76 1.2 15.94 1.82.57.08 1.47.2 1.99.27.52.06 2.79.38 5.02.71 14.24 2.08 22.02 3.09 27.9 3.62.62.06 1.36.13 1.65.17s1.3.12 2.25.17c.95.06 1.89.13 2.08.17.92.18 7.02.34 12.39.33 7.95-.01 12.08-.46 18.37-2.01 8.06-1.98 15.4-4.84 29.28-11.41 5.48-2.59 10.65-4.98 13.43-6.18 11.26-4.89 20.08-7.35 29.37-8.18 1.09-.1 2.42-.22 2.93-.27 1-.09 12.73-.1 13.71-.01.33.03 1.35.11 2.25.17 3.27.22 5.42.43 10.4 1.06 5.14.64 13.36 2.03 22.96 3.88 17.93 3.45 27.7 5.08 33.79 5.66.68.06 1.33.14 1.47.17s1.04.11 1.99.17c.95.07 1.87.15 2.04.18s1.45.12 2.82.18c2.48.12 2.5.12 2.5-.25 0-.33-.1-.37-.91-.38-.5 0-1.14-.04-1.43-.07s-1.21-.11-2.08-.16c-8.56-.57-16.56-1.77-34.22-5.12-12.39-2.35-15.7-2.96-19.75-3.62-4.54-.74-9.6-1.48-11.52-1.68-.57-.06-1.23-.14-1.47-.17s-.97-.11-1.65-.16c-.68-.06-1.48-.13-1.82-.17s-1.3-.12-2.17-.17-1.91-.14-2.34-.19c-.95-.16-11.65-.28-13-.2z"/><path d="m276.38 443.77c-8.8.54-15.9 2.12-24.69 5.49-5.47 2.1-9.3 3.88-22.7 10.56-11.7 5.83-16.27 7.84-22.61 9.93-5.09 1.68-11.45 3.07-15.42 3.38-.81.06-1.67.14-1.91.18-.55.09-12.53.09-13.34 0-.34-.04-1.42-.11-2.43-.17-7.19-.41-15.99-1.58-31.45-4.16-16.1-2.69-20.28-3.32-27.2-4.06-5.27-.57-8.29-.8-12.3-.96-1.33-.05-2.85-.13-3.38-.18-.52-.04-1.73-.12-2.69-.18-.95-.06-2.01-.14-2.34-.17s-1.39-.12-2.34-.17c-.95-.06-1.85-.14-1.99-.17-.14-.04-1.04-.12-1.99-.17-.95-.06-1.85-.14-1.99-.17-.14-.04-.88-.12-1.65-.17-.76-.06-1.58-.14-1.82-.17-.24-.04-.97-.12-1.65-.17-.68-.06-1.33-.13-1.47-.17s-.88-.12-1.65-.17-1.58-.14-1.82-.17c-.24-.04-.78-.11-1.21-.16-2.91-.34-8.39-1.01-10.05-1.22-1.1-.14-6.05-.76-11-1.39-10.08-1.27-9.53-1.2-12.82-1.57-1.33-.15-2.62-.3-2.86-.35-.4-.07-11.47-1.19-13.69-1.38-1.92-.17-5.33-.42-7.02-.52-.95-.06-2.2-.13-2.77-.17-.58-.04-2.04-.11-3.29-.16-1.25002-.05-3.24002-.14-4.46002-.2l-2.21-.1v.42.42l2.64.04c1.46.02 2.84.07 3.08.1.24002.03 1.72002.11 3.28002.17 1.56.07 2.97.14 3.12.17s1.12.1 2.17.16 2.25.14 2.69.18c.43.04 1.37.12 2.08.17.71.06 1.57.14 1.91.17.33.04 1.58.15 2.77.26 1.2.11 2.44.22 2.77.26s1.42.15 2.43.26c1 .11 2.09.22 2.43.26.33.04 2.01.23 3.73.42 1.72.2 4.02.47 5.11.61s2.38.3 2.86.36c.49.06 1.13.14 1.47.18.33.04 3.1.39 6.15.77s5.78.73 6.06.77c.64.09 4.57.59 5.54.7.38.04 1.66.2 2.86.35 2.7.34 3.16.39 5.2.61.9.1 1.92.21 2.25.25s1.42.16 2.43.27c1.94.2 2.83.3 4.02.43 1.01.11 6.19.59 7.68.7.68.05 1.56.13 1.99.16.43.04 1.52.12 2.43.17.9.06 2.16.14 2.77.17.62.04 1.94.11 2.95.16 1 .05 2.59.14 3.55.19 2.29.12 3.6.22 6.93.53 8.17.76 13.13 1.49 33.35 4.89 9.67 1.63 19.15 2.92 24.95 3.39 4.96.41 7 .5 11.78.51 7.21.03 9.84-.15 14.38-.95 5.45-.96 11.73-2.87 18.02-5.49 4.05-1.68 8.63-3.85 18.28-8.66 13.17-6.56 17.82-8.61 24.4-10.77 5.68-1.86 11.44-3.08 16.48-3.48 1.25-.1 2.58-.22 2.96-.27.82-.1 11.12-.12 12.13-.02.38.04 1.53.12 2.56.18 1.02.06 2.04.14 2.25.18s1.29.16 2.38.27c2.74.27 8.68 1.12 12.22 1.74 5.9 1.03 11.14 2.12 28.24 5.86 14.29 3.12 25.01 4.84 33.2 5.32 1.75.1 2.02.08 2.11-.16.06-.16.05-.31-.02-.36-.07-.04-1.28-.17-2.72-.28-9.86-.75-19.58-2.42-39.31-6.75-16.7-3.67-22.46-4.74-31.55-5.89-6.66-.82-15.66-1.19-21.23-.84z"/><path d="m276.64 451.83c-13.63.8-24.08 4.23-42.02 13.79-8.21 4.38-9.88 5.25-14 7.31-11.85 5.93-20 8.62-29.49 9.74-2.8.33-10.14.43-14.73.19-8.89-.45-19.49-2-37.51-5.5-1.53-.3-4.68-.88-7.02-1.31-2.34-.42-4.87-.89-5.63-1.03-6.31-1.16-16.3-2.42-21.92-2.76-.9-.05-2.08-.14-2.6-.19s-2.04-.13-3.38-.19c-1.33-.06-2.62-.13-2.86-.16s-1.4-.11-2.6-.17c-1.2-.07-2.28-.14-2.43-.17-.14-.03-1.16-.1-2.25-.16s-2.27-.14-2.6-.18c-.34-.04-1.26-.12-2.08-.17-.81-.06-1.82-.13-2.25-.17s-1.37-.12-2.08-.17c-.71-.06-1.73-.14-2.25-.18-.53-.04-3.21-.27-5.98-.51s-5.41-.47-5.89-.52-2.74-.24-5.02-.44c-4.04-.34-5.29-.45-7.1-.62-.96-.09-8.66-.71-10.57-.85-.68-.05-1.63-.13-2.17-.18-.52-.05-1.54-.13-2.25-.17-.71-.05-1.73-.13-2.25-.17-.52-.05-1.7-.13-2.6-.18s-2.12-.13-2.69-.17-3.26-.19-5.98-.34c-2.72-.14-5.68-.3-6.58-.35s-3.64-.13-6.06-.17c-2.42998-.05-5.40998-.13-6.62998-.18l-2.21-.1v.42.42l6.19.12c3.40998.07 6.53998.15 6.96998.19s2.03.12 3.55.17c2.56.1 12.41.66 14.99.87.62.05 2.76.21 4.76.35 4.3.31 11.76.91 13 1.03.48.05 2.74.24 5.02.43 2.29.19 4.47.38 4.85.42s1.66.16 2.86.26 2.63.22 3.21.27c.57.05 1.47.12 1.99.17 2.41.21 3.26.28 3.99.36.98.1 6.32.53 10.83.86 1.91.14 3.93.29 4.51.34.57.04 1.7.12 2.51.17 2.75.18 4.24.28 5.37.35.62.04 1.94.12 2.95.17 3.53.19 9.13.63 11.09.87 1.21.15 3.57.45 4.07.52.29.04.9.12 1.39.19 4.43.58 9.88 1.54 25.56 4.5 12.22 2.31 19.7 3.49 26.25 4.15.57.06 1.35.14 1.73.17 7.23.72 16.06.79 21.4.16 5.35-.63 11.8-2.32 17.76-4.66 5.86-2.3 10.31-4.46 22.18-10.75 8.78-4.66 12.21-6.38 16.2-8.14 9.76-4.32 16.96-6.23 26.34-7.02 2.04-.17 11.73-.25 12.65-.1.24.04 1.25.12 2.25.18 2.28.14 7.19.7 10.1 1.15 7.88 1.22 15.49 2.86 31.74 6.84 16.29 3.99 23.98 5.56 32.05 6.56 4.52.56 4.88.6 6.98.73 1.73.11 1.77.11 1.77-.26 0-.24-.1-.37-.29-.37-.32 0-3.62-.28-5.25-.44-1.49-.15-8.25-1.11-9.88-1.4-6.75-1.21-13.27-2.64-24-5.27-16.44-4.03-23.18-5.52-30.06-6.65-3.33-.55-8.45-1.23-11.09-1.47-1.09-.1-2.42-.23-2.95-.28-1.18-.12-10.45-.23-11.86-.15z"/><path d="m276.12 460.38c-10.11.61-17.86 2.59-27.98 7.14-4.74 2.13-9.2 4.48-21.31 11.21-16.03 8.91-26.19 12.61-37.43 13.63-2.61.24-12.04.12-15.25-.19-.43-.04-1.72-.16-2.86-.26-6.07-.55-14.4-1.88-24.31-3.9-26.98-5.48-32-6.37-40.23-7.11-.62-.06-1.47-.13-1.91-.18-1.3-.12-5.01-.33-9.27-.52-4.7-.21-9.12-.43-10.57-.52-.67-.04-2.06-.12-3.12-.17-1.05-.05-3.15-.17-4.68-.25-1.52-.09-3.71-.2-4.85-.26s-2.43-.14-2.86-.17c-.43-.04-1.87-.12-3.21-.17-1.33-.06-2.82-.14-3.29-.17-.48-.04-1.8-.12-2.95-.17-1.14-.06-2.55-.14-3.12-.17-.58-.04-1.89-.11-2.95-.16s-2.56-.13-3.38-.18-2.32-.13-3.38-.17c-1.06-.05-2.6-.12-3.47-.17-1.66-.09-4.16-.2-7.8-.35-1.25-.05-3.1-.13-4.16-.17-7.55-.32-17.51-.54-24.77999-.53-5.18.01-5.2.01-5.25.38l-.05.37 7.94.03c4.36999.02 8.43999.05 9.05999.08.62.02 3.12.1 5.54.16 2.43.07 5.12.15 5.98.19s2.81.11 4.33.16 3.44.13 4.25.18 3.15.16 5.2.26c4.45.2 6.89.32 8.75.44.76.05 3.64.2 6.41.34s5.53.3 6.15.35 1.94.13 2.95.17c1 .05 2.4.13 3.12.17s2.11.13 3.12.17 2.4.12 3.12.17c1.5.09 3.64.21 6.32.36 1.06.06 2.48.13 3.21.18.71.04 2.24.12 3.38.17s2.74.13 3.55.17 2.56.12 3.9.17c1.33.05 2.93.13 3.55.17 3.21.21 4.2.29 5.46.43.76.09 1.89.2 2.51.26 4.46.43 15.46 2.31 24.78 4.24 20.83 4.31 28.02 5.57 36.39 6.4 5.24.52 5.8.55 11.44.62 8.28.1 13.49-.57 20.29-2.6 7.9-2.36 14.38-5.39 29.18-13.65 19.63-10.96 28.49-14.28 41.67-15.63 1.67-.17 4.12-.22 8.58-.18 3.43.03 6.43.1 6.67.15s1.06.14 1.82.2c1.58.13 2.03.18 4.68.54 9.15 1.24 17.31 3.06 35.78 7.96 17.02 4.51 25.9 6.48 33.96 7.53.81.11 1.77.23 2.13.28.83.11 5.75.55 5.79.52.01-.01.04-.17.08-.36.05-.31-.06-.36-1.24-.46-.71-.06-1.85-.16-2.51-.22-3.34-.3-8.94-1.17-13.69-2.11-6.27-1.25-11.94-2.63-26.16-6.4-17.05-4.51-27.55-6.79-35.09-7.62-.52-.06-1.15-.14-1.39-.17-.24-.04-.94-.11-1.56-.16s-2.06-.18-3.21-.28c-2.67-.24-9.11-.33-11.77-.17z"/><path d="m276.37 469.1c-.04.03-.97.11-2.06.17-7.25.41-14.62 2.2-22.61 5.49-3.58 1.47-10.95 5.25-17.15 8.8-3.15 1.8-7.35 4.2-9.36 5.35-14.64 8.38-24.14 11.96-34.83 13.13-2.33.26-11.09.3-13.86.07-.95-.08-2.32-.19-3.03-.24-1.44-.11-4.39-.42-4.97-.51-.2-.03-.81-.11-1.37-.18-4.99-.58-13.95-2.3-27.53-5.31-16.24-3.59-21.99-4.71-28.42-5.54-.76-.1-1.58-.21-1.82-.25-.62-.1-5.39-.57-6.93-.69-3.1-.22-3.68-.26-6.06-.35-1.39-.05-3.25-.13-4.16-.18-.9-.05-2.7-.13-3.99-.17-1.28-.05-3.16-.13-4.16-.17-1-.05-3.07-.13-4.59-.17-1.52-.05-3.67-.13-4.76-.17-1.09-.05-3.36-.13-5.02-.17-1.66-.05-4.01-.13-5.2-.17-1.19-.05-5.44-.16-9.44-.26s-8.84-.21-10.74-.26c-6.2-.16-41.73003-.32-42.57003-.19-.66.1-.829997.19-.829997.46 0 .33.319997.34 18.760027.36 10.31.01 19.34.05 20.06.07.71.02 4.38.09 8.14.16s7.51.14 8.32.18 3.5.12 5.98.17c2.48.06 5.09.14 5.8.17.71.04 3.01.12 5.11.17 2.1.06 4.4.14 5.11.17.71.04 2.67.12 4.33.17 1.66.06 3.7.14 4.51.18s3.38.15 5.72.25c6.26.25 9.37.42 11.26.62.43.04 1.32.13 1.99.18s1.33.13 1.47.16.76.11 1.39.17c1.79.19 7.61 1.09 10.74 1.66 5.36.98 8.39 1.61 20.53 4.31 15.27 3.39 23.18 4.84 30.93 5.64.52.05 1.23.13 1.56.17s1.35.12 2.25.17c.9.06 2.12.15 2.69.21 1.8.18 10.48.1 12.39-.11 11.93-1.31 20.98-4.8 38.41-14.85 10.97-6.32 13.97-7.98 18.21-10.05 9.62-4.69 17.87-7.14 26.29-7.79.68-.05 1.44-.12 1.73-.16 1.04-.14 10.12-.08 12.34.08 6.86.51 15.04 1.89 24.05 4.07 5.23 1.27 8.54 2.16 24.52 6.65 15.3 4.3 25.2 6.42 34.38 7.38 3.41.36 3.57.35 3.57-.08 0-.27-.12-.35-.52-.37-.29-.01-.58-.04-.65-.05s-.82-.09-1.69-.16c-4.3-.37-12.2-1.72-18.4-3.15-5.73-1.32-9.01-2.19-21.59-5.72-22.79-6.41-31.3-8.23-43.61-9.34-1.41-.1-10.52-.27-10.62-.18z"/><path d="m274.98 478.46c-.04.03-.85.12-1.8.18-8.83.61-17.38 3.17-27.46 8.24-4.67 2.35-7.07 3.7-16.98 9.56-8.32 4.92-9.98 5.85-14.55 8.13-8.33 4.15-15.05 6.32-22.87 7.38-3.15.43-14.1.41-17.41-.03-.29-.04-1.37-.16-2.43-.27-7.7-.8-16.24-2.43-31.99-6.12-21.9-5.14-31.25-6.7-42.43-7.12-1.39-.05-3.17-.13-3.99-.17-3.78-.21-14.55-.53-21.23-.63-11.96-.18-55.95-.06-67.39998.19-3.899999.08-4.159998.11-4.219998.42-.06.32.32.33 15.069978.18 25.77-.25 59.28-.16 65.91.17.48.02 2.93.1 5.46.17s4.94.15 5.37.18 2.03.1 3.55.16c12.69.49 21.29 1.89 42.71 6.94 15.39 3.63 24.2 5.37 31.19 6.16.9.1 1.88.22 2.17.25.29.04 1.18.12 1.99.18s1.67.15 1.91.2 3.24.11 6.67.15c6.79.07 8.68-.06 12.91-.87 9.85-1.88 18.4-5.68 34.74-15.42 16.89-10.07 23.96-13.4 33.25-15.68 8.6-2.11 19.22-2.44 29.73-.94 10.34 1.48 17.34 3.22 41.5 10.29 9.53 2.79 17.08 4.77 22.77 5.97 4.78 1.01 11.63 2.05 15.04 2.29 1.56.11 1.61.1 1.61-.26 0-.23-.1-.37-.26-.37-.75 0-5.74-.58-8.32-.97-8.95-1.34-17.1-3.38-37.34-9.34-19.39-5.71-29.28-7.9-40.63-9.01-1.24-.11-12.13-.29-12.24-.19z"/><path d="m275.43 488.39c-10.34.62-18.54 2.86-28.5 7.78-4.4 2.17-7.95 4.18-16.98 9.6-8.84 5.3-11.32 6.72-15.68 8.92-8.26 4.19-15.04 6.42-22.7 7.47-2.46.34-10.59.45-14.87.2-1.96-.11-6.35-.54-7.57-.74-.24-.04-1.09-.16-1.91-.27-6.42-.85-14.24-2.48-28.76-5.97-21.73-5.23-30.3-6.63-43.49-7.11-1.66-.06-3.46-.14-3.99-.17-5.54-.34-34.64-.45-52.33-.21-11.54.16-27.44.33-33.87.36l-4.68.02-.05.4-.05.41 5.16-.02c5.94-.02 27.01-.29 34.45-.44 5.65-.11 40.3-.11 42.97 0 .95.04 3.73.12 6.15.18 2.43.06 4.97.14 5.63.17.67.04 2.34.12 3.73.17s2.82.14 3.21.17c.38.04 1.28.12 1.99.18 8.72.74 17.17 2.35 36.3 6.93 22.14 5.3 31.97 6.85 43.49 6.87 8.09.02 12.77-.69 19.84-3.01 7.42-2.43 13.57-5.54 27.78-14.07 11.37-6.82 15.9-9.28 21.61-11.72 5.87-2.51 12.97-4.43 18.28-4.94.68-.07 1.37-.15 1.56-.2.71-.17 8.92-.32 11.18-.2 2.46.12 4.65.29 5.8.43 11.91 1.51 19.13 3.23 41.07 9.79 16.69 4.99 24.31 6.94 32.66 8.37 2.63.45 9.86 1.31 10.97 1.31.07 0 .12-.18.12-.41 0-.38-.06-.41-1.1-.44-.61-.02-1.25-.06-1.43-.1-.18-.03-.87-.11-1.54-.18-9.7-.94-18.99-3.14-40.61-9.62-21.78-6.53-30.46-8.52-41.86-9.63-2.55-.22-9.88-.4-11.98-.28z"/></g></svg>